<svg width="176" height="48" viewBox="0 0 176 48" fill="none" xmlns="http://www.w3.org/2000/svg">
<g filter="url(#filter0_d_317_1476)">
<path d="M2.41701 14.8486L20.062 2.18752C20.232 2.06558 20.4359 2 20.645 2H171C171.552 2 172 2.44772 172 3V30.3389C172 30.6611 171.845 30.9636 171.583 31.1514L153.938 43.8125C153.768 43.9344 153.564 44 153.355 44H3C2.44772 44 2 43.5523 2 43V15.6611C2 15.3389 2.15524 15.0364 2.41701 14.8486Z" stroke="url(#paint0_linear_317_1476)" stroke-width="3" shape-rendering="crispEdges"/>
</g>
<path d="M59.6885 23.3447C59.374 23.0758 59.1279 22.75 58.9502 22.3672C58.7725 21.9798 58.6836 21.5742 58.6836 21.1504C58.6836 20.6126 58.8158 20.1227 59.0801 19.6807C59.3444 19.234 59.6976 18.8786 60.1396 18.6143C60.5863 18.3499 61.0785 18.2178 61.6162 18.2178H69.7646V20.1729H61.6162C61.3473 20.1729 61.1172 20.2686 60.9258 20.46C60.7344 20.6514 60.6387 20.8815 60.6387 21.1504C60.6387 21.4193 60.7435 21.654 60.9531 21.8545C61.1172 21.9867 61.3268 22.0687 61.582 22.1006C61.8372 22.1279 62.1221 22.1416 62.4365 22.1416C62.4912 22.1416 62.5459 22.1416 62.6006 22.1416H62.6074C63.373 22.1553 64.1387 22.1576 64.9043 22.1484H65.1299C65.5036 22.1439 65.875 22.137 66.2441 22.1279C66.3717 22.1279 66.5016 22.1257 66.6338 22.1211C66.9391 22.112 67.2604 22.1257 67.5977 22.1621C67.9395 22.1986 68.279 22.2965 68.6162 22.4561C69.4593 22.889 69.9788 23.5749 70.1748 24.5137C70.2568 24.9557 70.2432 25.391 70.1338 25.8193C70.0153 26.2751 69.7988 26.6784 69.4844 27.0293C69.2018 27.3392 68.8737 27.5785 68.5 27.7471C68.1263 27.9157 67.7344 28 67.3242 28H59.0117V26.0449H67.3242C67.5885 26.0449 67.8232 25.9378 68.0283 25.7236C68.238 25.4867 68.3132 25.2064 68.2539 24.8828C68.1901 24.5729 68.0238 24.3496 67.7549 24.2129C67.4632 24.0944 67.1009 24.0488 66.668 24.0762C66.5404 24.0807 66.4128 24.083 66.2852 24.083C65.9115 24.0921 65.5309 24.099 65.1436 24.1035H64.918C64.1387 24.1172 63.3548 24.1149 62.5664 24.0967C62.5163 24.0967 62.4661 24.0967 62.416 24.0967C61.9922 24.1058 61.541 24.0716 61.0625 23.9941C60.5885 23.9121 60.1305 23.6956 59.6885 23.3447ZM73.767 28H72.7894H71.8119V18.2178H72.7894H73.767H82.5716V20.1729H73.767V22.1348H80.6166V24.0898H73.767V26.0449H82.5716V28H73.767ZM86.0339 20.5557V28H84.0788V18.2178H86.4509L94.0251 25.6689V18.2178H95.9802V28H93.6081L86.0339 20.5557ZM107.092 19.3662C107.857 20.1637 108.24 21.0866 108.24 22.1348V24.0898C108.24 25.1335 107.857 26.054 107.092 26.8516C106.294 27.6172 105.371 28 104.323 28H97.4942V26.0449H104.323C104.866 26.0449 105.328 25.8535 105.711 25.4707C106.094 25.0879 106.285 24.6276 106.285 24.0898V22.1348C106.285 21.5924 106.094 21.1299 105.711 20.7471C105.328 20.3643 104.866 20.1729 104.323 20.1729H97.4942V18.2178H104.323C105.371 18.2178 106.294 18.6006 107.092 19.3662Z" fill="#3F43C8"/>
<defs>
<filter id="filter0_d_317_1476" x="0.5" y="0.5" width="175" height="47" filterUnits="userSpaceOnUse" color-interpolation-filters="sRGB">
<feFlood flood-opacity="0" result="BackgroundImageFix"/>
<feColorMatrix in="SourceAlpha" type="matrix" values="0 0 0 0 0 0 0 0 0 0 0 0 0 0 0 0 0 0 127 0" result="hardAlpha"/>
<feOffset dx="2" dy="2"/>
<feComposite in2="hardAlpha" operator="out"/>
<feColorMatrix type="matrix" values="0 0 0 0 0.122972 0 0 0 0 0.132873 0 0 0 0 0.158333 0 0 0 1 0"/>
<feBlend mode="normal" in2="BackgroundImageFix" result="effect1_dropShadow_317_1476"/>
<feBlend mode="normal" in="SourceGraphic" in2="effect1_dropShadow_317_1476" result="shape"/>
</filter>
<linearGradient id="paint0_linear_317_1476" x1="-14" y1="-6.32759" x2="133.27" y2="93.0078" gradientUnits="userSpaceOnUse">
<stop stop-color="#FE028D"/>
<stop offset="1" stop-color="#0017D1"/>
</linearGradient>
</defs>
</svg>
