<svg width="98" height="20" viewBox="0 0 98 20" fill="none" xmlns="http://www.w3.org/2000/svg">
<path d="M15.6959 0C17.4684 0.315237 19.1638 0.868858 20.7493 1.63062C23.5217 5.88189 24.8992 10.6767 24.3906 16.207C22.2694 17.8356 20.2118 18.8236 18.1889 19.4702C17.688 18.765 17.2449 18.0134 16.8615 17.2254C17.5917 16.9404 18.2929 16.5889 18.9557 16.1787C18.7823 16.0454 18.6108 15.9059 18.4432 15.7625C14.461 17.6982 10.0818 17.6982 6.0514 15.7625C5.88573 15.9059 5.71425 16.0454 5.53894 16.1787C6.19974 16.5869 6.89909 16.9384 7.62926 17.2233C7.24588 18.0134 6.80084 18.763 6.30185 19.4682C4.28087 18.8216 2.22519 17.8335 0.104017 16.207C-0.329465 11.4364 0.537499 6.59718 3.73564 1.63466C5.32123 0.870892 7.01856 0.315237 8.79295 0C9.01258 0.404122 9.27267 0.947675 9.44798 1.38007C11.2975 1.08911 13.1644 1.08911 15.0486 1.38007C15.2239 0.947675 15.4782 0.404122 15.6959 0ZM64.3002 6.22778C65.6486 6.22778 66.7681 6.52481 67.6582 7.11884V9.70721C67.3443 9.48089 66.978 9.29702 66.5599 9.15559C66.1419 9.01416 65.695 8.94341 65.2172 8.94341C64.3811 8.94341 63.728 9.10304 63.2559 9.42431C62.7838 9.74558 62.5471 10.1638 62.5471 10.6831C62.5471 11.1923 62.7761 11.6086 63.2348 11.9359C63.6934 12.2612 64.3579 12.4249 65.2306 12.4249C65.6795 12.4249 66.1227 12.3562 66.5599 12.2208C66.9954 12.0834 67.3711 11.9157 67.6851 11.7176V14.2211C66.6969 14.8435 65.5506 15.1546 64.2461 15.1546C63.1481 15.1506 62.2117 14.9526 61.439 14.5566C60.6668 14.1605 60.0829 13.6231 59.6937 12.9441C59.3045 12.2652 59.1081 11.5015 59.1081 10.6528C59.1081 9.8042 59.3102 9.04446 59.7148 8.37565C60.1195 7.70684 60.7128 7.18149 61.4951 6.7996C62.2771 6.41772 63.2116 6.22778 64.3002 6.22778ZM54.1716 6.22585C54.9267 6.22585 55.6184 6.3107 56.2487 6.48044C56.8786 6.65017 57.3987 6.86635 57.813 7.13104V9.35167C57.3889 9.08697 56.9034 8.87886 56.3487 8.72123C55.7957 8.56566 55.2276 8.48888 54.6417 8.48888C53.7958 8.48888 53.3741 8.64041 53.3741 8.94147C53.3741 9.08294 53.4396 9.188 53.5705 9.25871C53.7015 9.32943 53.9422 9.40218 54.2911 9.47896L55.6396 9.73355C56.5203 9.89318 57.1771 10.174 57.6085 10.5741C58.0403 10.9742 58.2559 11.5662 58.2559 12.3502C58.2559 13.2089 57.8997 13.8899 57.1848 14.395C56.4699 14.9001 55.4566 15.1527 54.1427 15.1527C53.3701 15.1507 52.619 15.0517 51.8907 14.8537C51.1624 14.6557 50.5053 14.3687 49.9217 13.9909V11.643C50.3629 12.0006 50.9542 12.2956 51.6959 12.528C52.4376 12.7583 53.1545 12.8735 53.8479 12.8735C54.1716 12.8735 54.4164 12.8291 54.5819 12.7401C54.7478 12.6513 54.8307 12.5442 54.8307 12.4209C54.8307 12.2795 54.7864 12.1623 54.6957 12.0673C54.6051 11.9723 54.4298 11.8935 54.1699 11.8268L52.5515 11.445C51.6247 11.2187 50.9676 10.9055 50.5768 10.5034C50.1856 10.1033 49.9909 9.57795 49.9909 8.92734C49.9909 8.37975 50.1604 7.90495 50.5036 7.49879C50.8444 7.09267 51.3299 6.77947 51.9598 6.55922C52.5901 6.33697 53.3258 6.22585 54.1716 6.22585ZM98 4.68414V14.8678H94.6957V13.015C94.4163 13.7121 93.9925 14.2435 93.4224 14.6072C92.8519 14.9689 92.1468 15.1507 91.3107 15.1507C90.5633 15.1507 89.9122 14.9608 89.3552 14.5789C88.7985 14.197 88.369 13.6737 88.0665 13.0089C87.766 12.3441 87.6135 11.5925 87.6135 10.7519C87.6041 9.88512 87.764 9.10718 88.0934 8.41816C88.4211 7.72914 88.8851 7.19169 89.4825 6.80574C90.0798 6.41982 90.7617 6.22585 91.5266 6.22585C93.0736 6.22585 94.1199 6.91862 94.6673 8.30226L94.6956 8.3755L94.6957 4.68414H98ZM73.7807 6.22381C74.8501 6.22381 75.7729 6.41172 76.5455 6.78957C77.3181 7.16742 77.9077 7.6847 78.3123 8.34541C78.7169 9.00616 78.919 9.76385 78.919 10.6226C78.919 11.4712 78.7169 12.2391 78.3123 12.928C77.9077 13.6171 77.3161 14.1586 76.5377 14.5546C75.7594 14.9507 74.8404 15.1487 73.779 15.1487C72.7173 15.1487 71.7983 14.9527 71.022 14.5566C70.2437 14.1606 69.6504 13.6191 69.2417 12.9301C68.8334 12.2411 68.6273 11.4733 68.6273 10.6246C68.6273 9.77599 68.8314 9.01826 69.2417 8.35351C69.652 7.68873 70.2417 7.16742 71.0163 6.78957C71.7886 6.41172 72.7116 6.22381 73.7807 6.22381ZM48.4463 8.54339V14.9122H45.152V8.54339C46.1614 9.00002 47.4138 9.02022 48.4463 8.54339ZM85.795 6.40969C86.2708 6.40969 86.6794 6.52284 87.0222 6.74913V9.80423C86.6794 9.56781 86.2362 9.45062 85.6872 9.45062C84.9683 9.45062 84.4136 9.67897 84.0282 10.1356C83.641 10.5923 83.4483 11.3035 83.4483 12.2653V14.8678H80.1443V6.59356H83.3811V9.22434C83.5601 8.26252 83.8512 7.55334 84.2518 7.09464C84.6507 6.638 85.1668 6.40969 85.795 6.40969ZM38.175 4.967C39.4429 4.967 40.514 5.17512 41.3927 5.58934C42.2691 6.00353 42.9262 6.58142 43.3617 7.32095C43.7969 8.06048 44.0165 8.9071 44.0165 9.86081C44.0165 10.7943 43.7891 11.6409 43.3345 12.3986C42.8799 13.1584 42.1882 13.7585 41.2577 14.201C40.3273 14.6435 39.175 14.8657 37.7976 14.8657H32.9156V4.967H38.175ZM8.17835 8.12675C6.94727 8.12675 5.97625 9.28857 5.97625 10.7009C5.97625 12.1133 6.96846 13.2731 8.17835 13.2731C9.40946 13.2731 10.3824 12.1133 10.3805 10.7009C10.4016 9.28654 9.40946 8.12675 8.17835 8.12675ZM16.3163 8.12675C15.0852 8.12675 14.1142 9.28857 14.1142 10.7009C14.1142 12.1133 15.1064 13.2731 16.3163 13.2731C17.5474 13.2731 18.5184 12.1133 18.5184 10.7009C18.5396 9.28654 17.5474 8.12675 16.3163 8.12675ZM73.779 8.83035C73.2028 8.83035 72.7519 8.99805 72.4225 9.33346C72.0951 9.6689 71.9313 10.1175 71.9313 10.6832C71.9313 11.249 72.0951 11.7036 72.4225 12.0471C72.7502 12.3906 73.2028 12.5644 73.779 12.5644C74.3451 12.5623 74.7924 12.3906 75.1198 12.0471C75.4475 11.7036 75.613 11.249 75.613 10.6832C75.613 10.1175 75.4492 9.66687 75.1198 9.33346C74.7924 8.99805 74.3451 8.83035 73.779 8.83035ZM92.8751 8.87279C92.3184 8.87279 91.8735 9.0405 91.5401 9.3759C91.2066 9.71134 91.0411 10.1457 91.0411 10.6832C91.0411 11.2207 91.2066 11.6592 91.5401 11.9986C91.8735 12.3381 92.3127 12.5078 92.8617 12.5078C93.4184 12.5058 93.8653 12.334 94.2027 11.9905C94.5399 11.647 94.7074 11.2005 94.7074 10.655C94.7074 10.1276 94.5436 9.69717 94.2162 9.36784C93.8885 9.0385 93.4395 8.87279 92.8751 8.87279ZM37.9343 7.48462H36.289V12.3502H37.7435C38.5971 12.3502 39.2542 12.1259 39.7125 11.6793C40.1712 11.2307 40.4005 10.6205 40.4005 9.84667C40.4005 9.12935 40.196 8.55752 39.7877 8.12916C39.3794 7.7008 38.7609 7.48462 37.9343 7.48462ZM46.8007 4.37087C47.7103 4.37087 48.448 5.06561 48.448 5.92264C48.448 6.77967 47.7103 7.47445 46.8007 7.47445C45.8907 7.47445 45.1534 6.77967 45.1534 5.92264C45.1534 5.06561 45.8907 4.37087 46.8007 4.37087Z" fill="white"/>
</svg>
