<svg width="1195" height="329" viewBox="0 0 1195 329" fill="none" xmlns="http://www.w3.org/2000/svg">
<path d="M1195 340.377L1180.18 319.134H1195V340.377Z" fill="#4171FF"/>
<path d="M1195 365H1153.41L1121.39 319.134H1180.18L1195 340.377V365Z" fill="#5786FF"/>
<path d="M1094.62 365H1153.41L1121.39 319.134H1063.07L1094.62 365Z" fill="#6692FF"/>
<path d="M1036.3 365H1094.62L1063.07 319.134H1004.28L1036.3 365Z" fill="#D3DEFF"/>
<path d="M977.511 365H1036.3L1004.28 319.134H945.963L977.511 365Z" fill="#4877FF"/>
<path d="M919.194 365H977.51L945.962 319.134H887.646L919.194 365Z" fill="#608DFF"/>
<path d="M860.399 365H919.193L887.645 319.134H828.851L860.399 365Z" fill="#6A95FF"/>
<path d="M802.084 365H860.4L828.852 319.134H770.536L802.084 365Z" fill="#86ACFF"/>
<path d="M743.29 365H802.084L770.536 319.134H711.742L743.29 365Z" fill="#92B6FF"/>
<path d="M684.973 365H743.289L711.741 319.134H653.425L684.973 365Z" fill="#ACCAFF"/>
<path d="M626.181 365H684.975L653.427 319.134H594.633L626.181 365Z" fill="#749DFF"/>
<path d="M567.864 365H626.18L594.632 319.134H536.316L567.864 365Z" fill="#A0C1FF"/>
<path d="M509.069 365H567.863L536.315 319.134H477.521L509.069 365Z" fill="#C1DBFF"/>
<path d="M450.754 365H509.07L477.522 319.134H419.206L450.754 365Z" fill="#DBEFFF"/>
<path d="M391.96 365H450.754L419.206 319.134H360.412L391.96 365Z" fill="#D5EBFF"/>
<path d="M333.645 365H391.961L360.413 319.134H302.097L333.645 365Z" fill="#D5EBFF"/>
<path d="M274.851 365H333.645L302.097 319.134H243.303L274.851 365Z" fill="white"/>
<path d="M216.534 365H274.85L243.302 319.134H184.986L216.534 365Z" fill="white"/>
<path d="M157.739 365H216.533L184.985 319.134H126.191L157.739 365Z" fill="white"/>
<path d="M99.4243 365H157.74L126.192 319.134H67.8763L99.4243 365Z" fill="white"/>
<path d="M40.6299 365H99.4238L67.8758 319.134H9.08186L40.6299 365Z" fill="white"/>
<path d="M-0.00111008 365V319.134H9.08091L40.6289 365H-0.00111008Z" fill="white"/>
<path d="M1195 319.134H1180.18L1148.63 273.75H1195V319.134Z" fill="#4877FF"/>
<path d="M1121.39 319.134H1180.18L1148.63 273.75H1089.84L1121.39 319.134Z" fill="#85A3FF"/>
<path d="M1063.07 319.134H1121.39L1089.84 273.75H1031.52L1063.07 319.134Z" fill="#608DFF"/>
<path d="M1004.28 319.134H1063.07L1031.52 273.75H972.73L1004.28 319.134Z" fill="#5D8AFF"/>
<path d="M945.961 319.134H1004.28L972.729 273.75H914.413L945.961 319.134Z" fill="#5D8AFF"/>
<path d="M887.647 319.134H945.963L914.415 273.75H855.621L887.647 319.134Z" fill="#86ACFF"/>
<path d="M828.852 319.134H887.646L855.62 273.75H797.304L828.852 319.134Z" fill="#6D98FF"/>
<path d="M770.536 319.134H828.852L797.304 273.75H738.51L770.536 319.134Z" fill="#DBEFFF"/>
<path d="M711.741 319.134H770.535L738.509 273.75H680.193L711.741 319.134Z" fill="#ACCAFF"/>
<path d="M653.426 319.134H711.742L680.194 273.75H621.4L653.426 319.134Z" fill="#98BCFF"/>
<path d="M594.632 319.134H653.426L621.4 273.75H563.084L594.632 319.134Z" fill="#B8D4FF"/>
<path d="M536.317 319.134H594.633L563.085 273.75H504.291L536.317 319.134Z" fill="#BED7FF"/>
<path d="M477.522 319.134H536.316L504.29 273.75H445.974L477.522 319.134Z" fill="#B8D4FF"/>
<path d="M419.206 319.134H477.521L445.973 273.75H387.18L419.206 319.134Z" fill="#B8D4FF"/>
<path d="M360.413 319.134H419.207L387.181 273.75H328.865L360.413 319.134Z" fill="white"/>
<path d="M302.096 319.134H360.412L328.864 273.75H270.07L302.096 319.134Z" fill="#D2E7FF"/>
<path d="M243.302 319.134H302.096L270.07 273.75H211.754L243.302 319.134Z" fill="white"/>
<path d="M184.987 319.134H243.303L211.755 273.75H152.961L184.987 319.134Z" fill="white"/>
<path d="M126.192 319.134H184.986L152.96 273.75H94.6443L126.192 319.134Z" fill="white"/>
<path d="M67.8754 319.134H126.191L94.6434 273.75H35.8494L67.8754 319.134Z" fill="white"/>
<path d="M9.08102 319.134L-0.00100708 306.098V273.75H35.849L67.875 319.134H9.08102Z" fill="white"/>
<path d="M5.72205e-06 319.133V306.098L9.08203 319.133H5.72205e-06Z" fill="white"/>
<path d="M1195 256.369L1175.4 227.884H1195V256.369Z" fill="#5383FF"/>
<path d="M1195 273.75H1148.63L1117.09 227.884H1175.4L1195 256.369V273.75Z" fill="#DEE7FF"/>
<path d="M1089.84 273.75H1148.63L1117.09 227.884H1058.29L1089.84 273.75Z" fill="#5383FF"/>
<path d="M1031.52 273.75H1089.84L1058.29 227.884H999.976L1031.52 273.75Z" fill="#6A95FF"/>
<path d="M972.729 273.75H1031.52L999.975 227.884H941.181L972.729 273.75Z" fill="#6692FF"/>
<path d="M914.414 273.75H972.73L941.182 227.884H882.866L914.414 273.75Z" fill="#85A3FF"/>
<path d="M855.62 273.75H914.414L882.866 227.884H824.072L855.62 273.75Z" fill="#608DFF"/>
<path d="M797.303 273.75H855.619L824.071 227.884H765.755L797.303 273.75Z" fill="#8DB3FF"/>
<path d="M738.511 273.75H797.305L765.757 227.884H706.963L738.511 273.75Z" fill="white"/>
<path d="M680.194 273.75H738.51L706.962 227.884H648.646L680.194 273.75Z" fill="#A0C1FF"/>
<path d="M621.399 273.75H680.193L648.645 227.884H589.851L621.399 273.75Z" fill="#B5D2FF"/>
<path d="M563.084 273.75H621.4L589.852 227.884H531.536L563.084 273.75Z" fill="#98BCFF"/>
<path d="M504.29 273.75H563.084L531.536 227.884H472.742L504.29 273.75Z" fill="#D5EBFF"/>
<path d="M445.973 273.75H504.289L472.741 227.884H414.425L445.973 273.75Z" fill="#C5DDFF"/>
<path d="M387.181 273.75H445.975L414.427 227.884H355.633L387.181 273.75Z" fill="#BED7FF"/>
<path d="M328.864 273.75H387.18L355.632 227.884H297.316L328.864 273.75Z" fill="#E3F5FF"/>
<path d="M270.069 273.75H328.863L297.315 227.884H238.521L270.069 273.75Z" fill="white"/>
<path d="M211.754 273.75H270.07L238.522 227.884H180.206L211.754 273.75Z" fill="white"/>
<path d="M152.96 273.75H211.754L180.206 227.884H121.412L152.96 273.75Z" fill="white"/>
<path d="M94.6449 273.75H152.961L121.413 227.884H63.0969L94.6449 273.75Z" fill="white"/>
<path d="M35.8506 273.75H94.6445L63.0965 227.884H4.30256L35.8506 273.75Z" fill="white"/>
<path d="M-0.000392914 273.75V227.884H4.30161L35.8496 273.75H-0.000392914Z" fill="white"/>
<path d="M1195 227.884H1175.4L1143.85 182.5H1195V227.884Z" fill="#5786FF"/>
<path d="M1117.09 227.884H1175.4L1143.85 182.5H1085.06L1117.09 227.884Z" fill="#85A3FF"/>
<path d="M1058.29 227.884H1117.09L1085.06 182.5H1026.74L1058.29 227.884Z" fill="#85A3FF"/>
<path d="M999.977 227.884H1058.29L1026.74 182.5H967.951L999.977 227.884Z" fill="#C4D4FF"/>
<path d="M941.183 227.884H999.977L967.951 182.5H909.635L941.183 227.884Z" fill="#749DFF"/>
<path d="M882.866 227.884H941.182L909.634 182.5H850.84L882.866 227.884Z" fill="#719BFF"/>
<path d="M824.071 227.884H882.865L850.839 182.5H792.523L824.071 227.884Z" fill="#B1CEFF"/>
<path d="M765.756 227.884H824.072L792.524 182.5H733.73L765.756 227.884Z" fill="#B1CEFF"/>
<path d="M706.962 227.884H765.756L733.73 182.5H675.414L706.962 227.884Z" fill="#ACCAFF"/>
<path d="M648.647 227.884H706.963L675.415 182.5H616.621L648.647 227.884Z" fill="#CEE5FF"/>
<path d="M589.853 227.884H648.646L616.62 182.5H558.305L589.853 227.884Z" fill="#F1FFFF"/>
<path d="M531.536 227.884H589.852L558.304 182.5H499.51L531.536 227.884Z" fill="#EDFBFF"/>
<path d="M472.741 227.884H531.535L499.509 182.5H441.193L472.741 227.884Z" fill="#FDFFFF"/>
<path d="M414.426 227.884H472.742L441.194 182.5H382.4L414.426 227.884Z" fill="#C1DBFF"/>
<path d="M355.632 227.884H414.426L382.4 182.5H324.084L355.632 227.884Z" fill="#DBEFFF"/>
<path d="M297.317 227.884H355.633L324.085 182.5H265.291L297.317 227.884Z" fill="#E7F7FF"/>
<path d="M238.522 227.884H297.316L265.29 182.5H206.974L238.522 227.884Z" fill="white"/>
<path d="M180.206 227.884H238.521L206.973 182.5H148.18L180.206 227.884Z" fill="white"/>
<path d="M121.411 227.884H180.205L148.179 182.5H89.863L121.411 227.884Z" fill="white"/>
<path d="M63.0961 227.884H121.412L89.864 182.5H31.07L63.0961 227.884Z" fill="white"/>
<path d="M4.30173 227.884L-0.000282288 221.607V182.5H31.0697L63.0957 227.884H4.30173Z" fill="white"/>
<path d="M0.000727177 227.883V221.607L4.30273 227.883H0.000727177Z" fill="white"/>
<path d="M1195 171.879L1170.62 136.634H1195V171.879Z" fill="#4A7AFF"/>
<path d="M1195 182.5H1143.85L1112.31 136.634H1170.62L1195 171.878V182.5Z" fill="#5383FF"/>
<path d="M1085.06 182.5H1143.85L1112.31 136.634H1053.51L1085.06 182.5Z" fill="#4A7AFF"/>
<path d="M1026.74 182.5H1085.06L1053.51 136.634H995.197L1026.74 182.5Z" fill="#3C6DFF"/>
<path d="M967.95 182.5H1026.74L995.196 136.634H936.402L967.95 182.5Z" fill="#5D8AFF"/>
<path d="M909.633 182.5H967.949L936.401 136.634H878.085L909.633 182.5Z" fill="#83AAFF"/>
<path d="M850.841 182.5H909.635L878.087 136.634H819.293L850.841 182.5Z" fill="#A0C1FF"/>
<path d="M792.524 182.5H850.84L819.292 136.634H760.976L792.524 182.5Z" fill="#D2E7FF"/>
<path d="M733.729 182.5H792.523L760.975 136.634H702.181L733.729 182.5Z" fill="#D2E7FF"/>
<path d="M675.414 182.5H733.73L702.182 136.634H643.866L675.414 182.5Z" fill="#C5DDFF"/>
<path d="M616.62 182.5H675.414L643.866 136.634H585.072L616.62 182.5Z" fill="white"/>
<path d="M558.303 182.5H616.619L585.071 136.634H526.755L558.303 182.5Z" fill="#B1CEFF"/>
<path d="M499.511 182.5H558.305L526.757 136.634H467.963L499.511 182.5Z" fill="white"/>
<path d="M441.194 182.5H499.51L467.962 136.634H409.646L441.194 182.5Z" fill="white"/>
<path d="M382.399 182.5H441.193L409.645 136.634H350.851L382.399 182.5Z" fill="white"/>
<path d="M324.084 182.5H382.4L350.852 136.634H292.536L324.084 182.5Z" fill="white"/>
<path d="M265.29 182.5H324.084L292.536 136.634H233.742L265.29 182.5Z" fill="white"/>
<path d="M206.973 182.5H265.289L233.741 136.634H175.425L206.973 182.5Z" fill="white"/>
<path d="M148.181 182.5H206.975L175.427 136.634H116.633L148.181 182.5Z" fill="white"/>
<path d="M89.8636 182.5H148.18L116.632 136.634H58.3156L89.8636 182.5Z" fill="white"/>
<path d="M31.0693 182.5L-0.000671387 137.117V136.634H58.3153L89.8633 182.5H31.0693Z" fill="white"/>
<path d="M0.000331879 182.5V137.116L31.0703 182.5H0.000331879Z" fill="white"/>
<path d="M1195 136.634H1170.62L1139.07 91.25H1195V136.634Z" fill="#749DFF"/>
<path d="M1112.31 136.634H1170.62L1139.07 91.25H1080.76L1112.31 136.634Z" fill="#85A3FF"/>
<path d="M1053.51 136.634H1112.31L1080.76 91.25H1021.96L1053.51 136.634Z" fill="#C6D5FF"/>
<path d="M995.196 136.634H1053.51L1021.96 91.25H963.648L995.196 136.634Z" fill="#85A3FF"/>
<path d="M936.401 136.634H995.195L963.647 91.25H904.853L936.401 136.634Z" fill="#5786FF"/>
<path d="M878.086 136.634H936.402L904.854 91.25H846.538L878.086 136.634Z" fill="#5D8AFF"/>
<path d="M819.292 136.634H878.086L846.538 91.25H787.744L819.292 136.634Z" fill="#92B6FF"/>
<path d="M760.975 136.634H819.291L787.743 91.25H729.427L760.975 136.634Z" fill="#9DBFFF"/>
<path d="M702.183 136.634H760.977L729.429 91.25H670.635L702.183 136.634Z" fill="#F5FFFF"/>
<path d="M643.866 136.634H702.182L670.634 91.25H612.318L643.866 136.634Z" fill="#F1FFFF"/>
<path d="M585.071 136.634H643.865L612.317 91.25H553.523L585.071 136.634Z" fill="white"/>
<path d="M526.756 136.634H585.072L553.524 91.25H495.208L526.756 136.634Z" fill="white"/>
<path d="M467.962 136.634H526.756L495.208 91.25H436.414L467.962 136.634Z" fill="white"/>
<path d="M409.647 136.634H467.963L436.415 91.25H378.099L409.647 136.634Z" fill="white"/>
<path d="M350.853 136.634H409.646L378.098 91.25H319.305L350.853 136.634Z" fill="white"/>
<path d="M292.536 136.634H350.852L319.304 91.25H260.988L292.536 136.634Z" fill="white"/>
<path d="M233.741 136.634H292.535L260.987 91.25H202.193L233.741 136.634Z" fill="white"/>
<path d="M175.426 136.634H233.742L202.194 91.25H143.878L175.426 136.634Z" fill="white"/>
<path d="M116.632 136.634H175.426L143.878 91.25H85.0838L116.632 136.634Z" fill="white"/>
<path d="M58.3168 136.634H116.633L85.0848 91.25H26.7688L58.3168 136.634Z" fill="white"/>
<path d="M0.00043869 136.634V91.25H26.7684L58.3164 136.634H0.00043869Z" fill="white"/>
<path d="M1195 87.3878L1165.84 45.3838H1195V87.3878Z" fill="#749DFF"/>
<path d="M1195 91.2502H1139.07L1107.53 45.3838H1165.84L1195 87.3878V91.2502Z" fill="#719BFF"/>
<path d="M1080.76 91.2502H1139.07L1107.53 45.3838H1048.73L1080.76 91.2502Z" fill="#4171FF"/>
<path d="M1021.96 91.2502H1080.76L1048.73 45.3838H990.416L1021.96 91.2502Z" fill="#5180FF"/>
<path d="M963.649 91.2502H1021.96L990.417 45.3838H931.623L963.649 91.2502Z" fill="#4474FF"/>
<path d="M904.854 91.2502H963.648L931.622 45.3838H873.306L904.854 91.2502Z" fill="#6692FF"/>
<path d="M846.538 91.2502H904.854L873.306 45.3838H814.512L846.538 91.2502Z" fill="#85A3FF"/>
<path d="M787.743 91.2502H846.537L814.511 45.3838H756.195L787.743 91.2502Z" fill="#92B6FF"/>
<path d="M729.428 91.2502H787.744L756.196 45.3838H697.402L729.428 91.2502Z" fill="#E7F7FF"/>
<path d="M670.634 91.2502H729.428L697.402 45.3838H639.086L670.634 91.2502Z" fill="#E3F5FF"/>
<path d="M612.319 91.2502H670.635L639.087 45.3838H580.293L612.319 91.2502Z" fill="white"/>
<path d="M553.524 91.2502H612.318L580.292 45.3838H521.976L553.524 91.2502Z" fill="white"/>
<path d="M495.207 91.2502H553.523L521.975 45.3838H463.181L495.207 91.2502Z" fill="white"/>
<path d="M436.413 91.2502H495.207L463.181 45.3838H404.865L436.413 91.2502Z" fill="white"/>
<path d="M378.098 91.2502H436.414L404.866 45.3838H346.072L378.098 91.2502Z" fill="white"/>
<path d="M319.304 91.2502H378.098L346.072 45.3838H287.756L319.304 91.2502Z" fill="#E3F5FF"/>
<path d="M260.989 91.2502H319.305L287.757 45.3838H228.963L260.989 91.2502Z" fill="#E7F7FF"/>
<path d="M202.194 91.2502H260.988L228.962 45.3838H170.646L202.194 91.2502Z" fill="white"/>
<path d="M143.877 91.2502H202.193L170.645 45.3838H111.851L143.877 91.2502Z" fill="white"/>
<path d="M85.0849 91.2502H143.879L111.853 45.3838H53.5369L85.0849 91.2502Z" fill="white"/>
<path d="M26.7679 91.2502L-4.57764e-05 53.1087V45.3838H53.536L85.084 91.2502H26.7679Z" fill="white"/>
<path d="M-0.000396729 91.2499V53.1084L26.7676 91.2499H-0.000396729Z" fill="white"/>
<path d="M1195 45.3836H1165.84L1134.29 0H1193.09L1195 2.89683V45.3836Z" fill="#A0C1FF"/>
<path d="M1107.53 45.3836H1165.84L1134.29 0H1075.98L1107.53 45.3836Z" fill="#E0E9FF"/>
<path d="M1048.73 45.3836H1107.53L1075.98 0H1017.18L1048.73 45.3836Z" fill="#85A3FF"/>
<path d="M990.416 45.3836H1048.73L1017.18 0H958.868L990.416 45.3836Z" fill="#4A7AFF"/>
<path d="M931.622 45.3836H990.416L958.868 0H900.074L931.622 45.3836Z" fill="#C4D5FF"/>
<path d="M873.305 45.3836H931.621L900.073 0H841.757L873.305 45.3836Z" fill="#5383FF"/>
<path d="M814.513 45.3836H873.307L841.759 0H782.965L814.513 45.3836Z" fill="#4D7DFF"/>
<path d="M756.196 45.3836H814.512L782.964 0H724.648L756.196 45.3836Z" fill="#C5DDFF"/>
<path d="M697.401 45.3836H756.195L724.647 0H665.853L697.401 45.3836Z" fill="white"/>
<path d="M639.086 45.3836H697.402L665.854 0H607.538L639.086 45.3836Z" fill="white"/>
<path d="M580.292 45.3836H639.086L607.538 0H548.744L580.292 45.3836Z" fill="white"/>
<path d="M521.977 45.3836H580.293L548.745 0H490.429L521.977 45.3836Z" fill="white"/>
<path d="M463.183 45.3836H521.977L490.429 0H431.635L463.183 45.3836Z" fill="white"/>
<path d="M404.866 45.3836H463.182L431.634 0H373.318L404.866 45.3836Z" fill="white"/>
<path d="M346.071 45.3836H404.865L373.317 0H314.523L346.071 45.3836Z" fill="white"/>
<path d="M287.756 45.3836H346.072L314.524 0H256.208L287.756 45.3836Z" fill="#F5FFFF"/>
<path d="M228.962 45.3836H287.756L256.208 0H197.414L228.962 45.3836Z" fill="#F5FFFF"/>
<path d="M170.647 45.3836H228.963L197.415 0H139.099L170.647 45.3836Z" fill="white"/>
<path d="M111.853 45.3836H170.646L139.098 0H80.3045L111.853 45.3836Z" fill="white"/>
<path d="M53.5356 45.3836H111.852L80.3036 0H21.9875L53.5356 45.3836Z" fill="white"/>
<path d="M-0.000881195 45.3836V0H21.9871L53.5352 45.3836H-0.000881195Z" fill="white"/>
</svg>
