<svg width="491" height="382" viewBox="0 0 491 382" fill="none" xmlns="http://www.w3.org/2000/svg">
<path opacity="0.25" d="M20.5 46L20.4126 45.9506L-20 22.4986V-24.4986L-19.9126 -24.548L20.5 -48L20.5874 -47.9451L61 -24.4986V22.4986L60.9126 22.5535L20.5 46ZM-19.6505 22.2956L20.5 45.5939L60.645 22.2956V-24.2956L20.5 -47.5884L-19.6505 -24.2956V22.2956Z" fill="url(#paint0_linear_20_128)"/>
<path opacity="0.25" d="M101 46L100.914 45.9506L61 22.4986V-24.4986L61.0863 -24.548L101 -48L101.086 -47.9451L141 -24.4986V22.4986L140.914 22.5535L101 46ZM61.3506 22.2956L101 45.5939L140.655 22.2956V-24.2956L101 -47.5884L61.3506 -24.2956V22.2956Z" fill="url(#paint1_linear_20_128)"/>
<path opacity="0.25" d="M151 27.5986L141.352 22.0226V-24.0226L151 -29.5986V-30L141.092 -24.2721L141 -24.2233V22.2233L151 28V27.5986Z" fill="url(#paint2_linear_20_128)"/>
<path opacity="0.25" d="M21.5027 61L-32 30.2459V-31.2405L21.5027 -62L75 -31.2405V30.2459L21.5027 61ZM-30.1749 29.1958L21.5027 58.8997L73.1749 29.1958V-30.2066L21.5027 -59.9105L-30.1749 -30.2066V29.1958Z" fill="url(#paint3_linear_20_128)"/>
<path opacity="0.25" d="M151 44.5384L126.169 58.9001L74.8139 29.1974V-30.2028L126.169 -59.9001L151 -45.5383V-47.6382L126.169 -62L73 -31.2527V30.2473L126.169 61L151 46.6382V44.5384Z" fill="url(#paint4_linear_20_128)"/>
<path opacity="0.25" d="M11.9973 56L11.8945 55.94L-37 27.4891V-29.5L-36.8971 -29.56L11.9973 -58L12.1056 -57.9346L61 -29.5V27.4891L60.8918 27.5545L11.9973 56ZM-36.5777 27.2546L11.9973 55.5092L60.5777 27.2546V-29.2273L11.9973 -57.4819L-36.5777 -29.2273V27.2546Z" fill="url(#paint5_linear_20_128)"/>
<path opacity="0.25" d="M141 37.5453L110.067 55.5037L61.4229 27.2546V-29.2491L110.067 -57.5037L141 -39.5399V-40.0362L110.175 -57.9346L110.067 -58L61.103 -29.56L61 -29.5V27.5L109.964 55.94L110.067 56L141 38.0362V37.5453Z" fill="url(#paint6_linear_20_128)"/>
<path opacity="0.25" d="M146 212L145.903 211.945L101 185.998V134.002L101.097 133.947L146 108L146.097 108.061L191 134.002V185.998L190.903 186.059L146 212ZM101.388 185.774L146 211.551L190.63 185.774V134.244L146.024 108.474L101.388 134.244V185.774Z" fill="url(#paint7_linear_20_128)"/>
<path opacity="0.25" d="M101 289L100.903 288.945L56 263.003V210.997L56.0971 210.942L101 185L101.097 185.055L146 210.997V263.003L145.903 263.058L101 289ZM56.3883 262.778L101 288.551L145.612 262.778V211.222L101 185.449L56.3883 211.222V262.778Z" fill="url(#paint8_linear_20_128)"/>
<path opacity="0.25" d="M191 289L190.903 288.945L146 263.003V210.997L146.097 210.942L191 185L191.097 185.055L236 210.997V263.003L235.903 263.058L191 289ZM146.394 262.778L191 288.551L235.612 262.778V211.222L191 185.449L146.394 211.222V262.778Z" fill="url(#paint9_linear_20_128)"/>
<path opacity="0.25" d="M280 289L279.903 288.945L235 263.003V210.997L235.097 210.942L280 185L280.097 185.055L325 210.997V263.003L324.903 263.058L280 289ZM235.388 262.778L280 288.551L324.612 262.778V211.222L280 185.449L235.388 211.222V262.778Z" fill="url(#paint10_linear_20_128)"/>
<path opacity="0.25" d="M370 289L369.903 288.945L325 263.003V210.997L325.097 210.942L370 185L370.097 185.055L415 210.997V263.003L414.903 263.058L370 289ZM325.388 262.778L370 288.551L414.612 262.778V211.222L370 185.449L325.388 211.222V262.778Z" fill="url(#paint11_linear_20_128)"/>
<path opacity="0.25" d="M146 367L145.903 366.939L101 340.998V289.002L101.097 288.941L146 263L146.097 263.055L191 289.002V340.986L190.903 341.041L146 367ZM101.388 340.774L146 366.551L190.63 340.774V289.226L146.024 263.449L101.413 289.226L101.388 340.774Z" fill="url(#paint12_linear_20_128)"/>
<path opacity="0.25" d="M234.976 367L234.879 366.939L190 340.986V289.002L190.097 288.941L235 263L235.097 263.055L280 289.002V340.986L279.903 341.041L234.976 367ZM190.364 340.774L234.976 366.551L279.587 340.774V289.226L234.976 263.449L190.364 289.226V340.774Z" fill="url(#paint13_linear_20_128)"/>
<path opacity="0.25" d="M325 367L324.903 366.939L280 340.998V289.002L280.097 288.941L325 263L325.097 263.055L370 289.002V340.986L369.903 341.041L325 367ZM280.388 340.774L325 366.551L369.612 340.774V289.226L325 263.449L280.388 289.226V340.774Z" fill="url(#paint14_linear_20_128)"/>
<path opacity="0.25" d="M56.3884 396V367.058L101 341.446L145.612 367.058V396H146V366.835L101.097 341.06L101 341L56.0971 366.781L56 366.835V396H56.3884Z" fill="url(#paint15_linear_20_128)"/>
<path opacity="0.25" d="M146.388 396V367.058L191 341.446L235.612 367.058V396H236V366.835L191.097 341.06L191 341L146.097 366.781L146 366.835V396H146.388Z" fill="url(#paint16_linear_20_128)"/>
<path opacity="0.25" d="M235.388 396V367.058L280.003 341.446L324.618 367.058V396H325V366.835L280.1 341.06L280.003 341L235.097 366.781L235 366.835V396H235.388Z" fill="url(#paint17_linear_20_128)"/>
<path opacity="0.25" d="M325.382 396V367.058L369.997 341.446L414.612 367.058V396H415V366.835L370.1 341.06L369.997 341L325.091 366.781L325 366.835V396H325.382Z" fill="url(#paint18_linear_20_128)"/>
<path opacity="0.25" d="M28.402 61L0 77.3237V79.6626L28.402 63.3389L85.9669 96.4164V162.578L28.402 195.661L0 179.337V181.676L28.402 198L88 163.747V95.247L28.402 61Z" fill="url(#paint19_linear_20_128)"/>
<path opacity="0.25" d="M145.503 198L86 163.741V95.2591L145.503 61L205 95.2591V163.741L145.503 198ZM88.0298 162.577L145.503 195.661L202.97 162.577V96.3863L145.503 63.3029L88.0298 96.3863V162.577Z" fill="url(#paint20_linear_20_128)"/>
<path opacity="0.25" d="M261.997 198L203 163.75V95.2864L261.997 61L321 95.25V163.714L261.997 198ZM205.013 162.587L261.997 195.649L318.981 162.575V96.4133L261.997 63.3387L205.013 96.4133V162.587Z" fill="url(#paint21_linear_20_128)"/>
<path opacity="0.25" d="M0 180V182.332L26.9903 198.019V263.975L0 279.668V282L29 265.141V196.853L0 180Z" fill="url(#paint22_linear_20_128)"/>
<path opacity="0.25" d="M86.497 299L27 264.739V196.255L86.497 162L146 196.255V264.739L86.497 299ZM29.0298 263.576L86.497 296.661L143.964 263.576V197.388L86.497 164.303L29.0298 197.388V263.576Z" fill="url(#paint23_linear_20_128)"/>
<path opacity="0.25" d="M203.503 299L144 264.739V196.255L203.503 162L263 196.255V264.739L203.503 299ZM146.036 263.576L203.503 296.661L260.97 263.576V197.388L203.503 164.303L146.036 197.388V263.576Z" fill="url(#paint24_linear_20_128)"/>
<path opacity="0.25" d="M28.402 263L0 279.407V281.758L28.402 265.351L85.9669 298.598V365.098L32.4742 396H36.5404L88 366.273V297.422L28.402 263Z" fill="url(#paint25_linear_20_128)"/>
<path opacity="0.25" d="M141.437 396L88.0298 365.098V298.598L145.497 265.351L202.964 298.598V365.098L149.557 396H153.622L205 366.273V297.422L145.497 263L86 297.422V366.273L137.378 396H141.437Z" fill="url(#paint26_linear_20_128)"/>
<path opacity="0.25" d="M257.971 396L205.019 365.098V298.598L262.003 265.351L318.987 298.598V365.098L266.029 396H270.054L321 366.273V297.422L262.003 263L203 297.422V366.273L253.946 396H257.971Z" fill="url(#paint27_linear_20_128)"/>
<path opacity="0.25" d="M36.0654 396L86.5 367.315L136.928 396H141L86.5 365L32 396H36.0654Z" fill="url(#paint28_linear_20_128)"/>
<path opacity="0.25" d="M153.071 396L203.497 367.315L253.929 396H258L203.497 365L149 396H153.071Z" fill="url(#paint29_linear_20_128)"/>
<path opacity="0.25" d="M270.065 396L320.5 367.315L370.935 396H375L320.5 365L266 396H270.065Z" fill="url(#paint30_linear_20_128)"/>
<path opacity="0.25" d="M387.034 396L436.997 367.315L486.966 396H491L436.997 365L383 396H387.034Z" fill="url(#paint31_linear_20_128)"/>
<path opacity="0.25" d="M324.5 216C325.39 216 326.26 215.736 327 215.242C327.74 214.747 328.317 214.044 328.657 213.222C328.998 212.4 329.087 211.495 328.914 210.622C328.74 209.749 328.311 208.947 327.682 208.318C327.053 207.689 326.251 207.26 325.378 207.086C324.505 206.913 323.6 207.002 322.778 207.343C321.956 207.683 321.253 208.26 320.758 209C320.264 209.74 320 210.61 320 211.5C320 212.693 320.474 213.838 321.318 214.682C322.162 215.526 323.307 216 324.5 216Z" fill="url(#paint32_linear_20_128)"/>
<path opacity="0.25" d="M415 217C415.989 217 416.956 216.677 417.778 216.073C418.6 215.469 419.241 214.61 419.619 213.605C419.998 212.6 420.097 211.494 419.904 210.427C419.711 209.36 419.235 208.38 418.536 207.611C417.836 206.842 416.945 206.318 415.975 206.106C415.006 205.893 414 206.002 413.087 206.419C412.173 206.835 411.392 207.54 410.843 208.444C410.293 209.349 410 210.412 410 211.5C410 212.959 410.527 214.358 411.464 215.389C412.402 216.421 413.674 217 415 217Z" fill="url(#paint33_linear_20_128)"/>
<path opacity="0.25" d="M101 292C102.657 292 104 290.657 104 289C104 287.343 102.657 286 101 286C99.3431 286 98 287.343 98 289C98 290.657 99.3431 292 101 292Z" fill="url(#paint34_linear_20_128)"/>
<path opacity="0.25" d="M56 266C57.1046 266 58 264.881 58 263.5C58 262.119 57.1046 261 56 261C54.8954 261 54 262.119 54 263.5C54 264.881 54.8954 266 56 266Z" fill="url(#paint35_linear_20_128)"/>
<path opacity="0.25" d="M55 211.492C54.9989 211.789 55.0566 212.08 55.1659 212.327C55.2751 212.575 55.4309 212.769 55.6135 212.883C55.7961 212.998 55.9974 213.029 56.1917 212.972C56.3861 212.915 56.5648 212.773 56.7052 212.564C56.8456 212.354 56.9413 212.087 56.9804 211.796C57.0194 211.504 56.9999 211.202 56.9244 210.928C56.8489 210.653 56.7207 210.419 56.5562 210.253C56.3916 210.088 56.198 210 56 210C55.7357 210 55.4822 210.157 55.2948 210.436C55.1075 210.716 55.0015 211.095 55 211.492Z" fill="url(#paint36_linear_20_128)"/>
<path opacity="0.25" d="M142 263C142 263.791 142.205 264.565 142.59 265.223C142.975 265.881 143.522 266.394 144.162 266.696C144.802 266.999 145.506 267.078 146.185 266.923C146.864 266.768 147.488 266.386 147.977 265.826C148.466 265.266 148.799 264.553 148.933 263.776C149.068 263 148.998 262.196 148.732 261.465C148.466 260.734 148.017 260.11 147.44 259.671C146.864 259.232 146.187 258.999 145.494 259C144.567 259.002 143.678 259.424 143.023 260.174C142.368 260.924 142 261.94 142 263Z" fill="url(#paint37_linear_20_128)"/>
<path opacity="0.25" d="M148 211.506C148.001 211.011 147.856 210.527 147.582 210.115C147.308 209.703 146.917 209.382 146.461 209.192C146.004 209.002 145.501 208.952 145.016 209.047C144.531 209.143 144.085 209.381 143.734 209.73C143.384 210.08 143.145 210.525 143.048 211.01C142.952 211.495 143.001 211.998 143.19 212.455C143.379 212.912 143.699 213.303 144.11 213.578C144.522 213.853 145.005 214 145.5 214C145.828 214.001 146.153 213.937 146.456 213.812C146.76 213.687 147.035 213.503 147.267 213.272C147.5 213.04 147.684 212.765 147.81 212.462C147.935 212.159 148 211.834 148 211.506Z" fill="url(#paint38_linear_20_128)"/>
<path opacity="0.25" d="M235 209C234.604 209 234.218 209.147 233.889 209.421C233.56 209.696 233.304 210.086 233.152 210.543C233.001 211 232.961 211.503 233.038 211.988C233.116 212.473 233.306 212.918 233.586 213.268C233.865 213.617 234.222 213.856 234.61 213.952C234.998 214.048 235.4 213.999 235.765 213.81C236.131 213.62 236.443 213.3 236.663 212.889C236.883 212.478 237 211.994 237 211.5C237.001 211.171 236.95 210.846 236.849 210.542C236.749 210.238 236.602 209.962 236.416 209.73C236.23 209.498 236.009 209.314 235.766 209.188C235.523 209.063 235.263 208.999 235 209Z" fill="url(#paint39_linear_20_128)"/>
<path opacity="0.25" d="M277 289.494C276.999 290.187 277.203 290.864 277.587 291.44C277.971 292.017 278.517 292.466 279.156 292.732C279.796 292.998 280.5 293.068 281.179 292.933C281.858 292.799 282.483 292.466 282.973 291.977C283.463 291.488 283.797 290.864 283.932 290.185C284.068 289.506 283.999 288.802 283.734 288.162C283.469 287.522 283.021 286.975 282.445 286.59C281.869 286.205 281.192 286 280.5 286C279.573 286 278.683 286.368 278.027 287.023C277.371 287.678 277.002 288.567 277 289.494Z" fill="url(#paint40_linear_20_128)"/>
<path opacity="0.25" d="M235 258C234.011 258 233.044 258.293 232.222 258.843C231.399 259.393 230.758 260.174 230.38 261.088C230.002 262.002 229.903 263.008 230.097 263.978C230.29 264.948 230.767 265.839 231.467 266.538C232.166 267.237 233.058 267.712 234.028 267.905C234.998 268.097 236.004 267.997 236.918 267.618C237.831 267.238 238.612 266.597 239.16 265.774C239.709 264.95 240.001 263.983 240 262.994C240 262.338 239.871 261.688 239.619 261.082C239.368 260.475 239 259.924 238.535 259.461C238.071 258.997 237.52 258.629 236.913 258.378C236.306 258.128 235.656 257.999 235 258Z" fill="url(#paint41_linear_20_128)"/>
<path opacity="0.25" d="M414.5 269C415.588 269 416.651 268.677 417.556 268.073C418.46 267.469 419.165 266.61 419.581 265.605C419.998 264.6 420.107 263.494 419.894 262.427C419.682 261.36 419.158 260.38 418.389 259.611C417.62 258.842 416.64 258.318 415.573 258.106C414.506 257.893 413.4 258.002 412.395 258.419C411.39 258.835 410.531 259.54 409.927 260.444C409.323 261.349 409 262.412 409 263.5C409 264.222 409.142 264.937 409.419 265.605C409.695 266.272 410.1 266.878 410.611 267.389C411.122 267.9 411.728 268.305 412.395 268.581C413.063 268.858 413.778 269 414.5 269Z" fill="url(#paint42_linear_20_128)"/>
<path opacity="0.25" d="M187 289.494C186.999 290.187 187.203 290.864 187.587 291.441C187.971 292.017 188.518 292.467 189.158 292.732C189.798 292.998 190.502 293.068 191.181 292.933C191.861 292.798 192.485 292.465 192.975 291.975C193.465 291.485 193.798 290.861 193.933 290.181C194.068 289.502 193.998 288.798 193.732 288.158C193.467 287.518 193.017 286.971 192.441 286.587C191.864 286.203 191.187 285.999 190.494 286C189.568 286.002 188.68 286.37 188.025 287.025C187.37 287.68 187.002 288.568 187 289.494Z" fill="url(#paint43_linear_20_128)"/>
<path opacity="0.25" d="M190.5 346C191.588 346 192.651 345.677 193.556 345.073C194.46 344.469 195.165 343.61 195.581 342.605C195.998 341.6 196.107 340.494 195.894 339.427C195.682 338.36 195.158 337.38 194.389 336.611C193.62 335.842 192.64 335.318 191.573 335.106C190.506 334.893 189.4 335.002 188.395 335.419C187.39 335.835 186.531 336.54 185.927 337.444C185.323 338.349 185 339.412 185 340.5C185 341.959 185.579 343.358 186.611 344.389C187.642 345.421 189.041 346 190.5 346Z" fill="url(#paint44_linear_20_128)"/>
<path opacity="0.25" d="M325 269C328.314 269 331 266.314 331 263C331 259.686 328.314 257 325 257C321.686 257 319 259.686 319 263C319 266.314 321.686 269 325 269Z" fill="url(#paint45_linear_20_128)"/>
<path opacity="0.25" d="M370 291C371.105 291 372 290.105 372 289C372 287.895 371.105 287 370 287C368.895 287 368 287.895 368 289C368 290.105 368.895 291 370 291Z" fill="url(#paint46_linear_20_128)"/>
<path opacity="0.25" d="M414.5 371C415.392 371 416.263 370.735 417.004 370.239C417.745 369.743 418.322 369.038 418.661 368.213C419.001 367.389 419.087 366.482 418.911 365.608C418.734 364.734 418.302 363.932 417.668 363.304C417.035 362.677 416.23 362.251 415.354 362.082C414.479 361.913 413.573 362.007 412.751 362.354C411.93 362.7 411.23 363.283 410.74 364.028C410.25 364.773 409.993 365.647 410 366.538C410.01 367.725 410.489 368.86 411.332 369.696C412.174 370.531 413.313 371 414.5 371Z" fill="url(#paint47_linear_20_128)"/>
<path opacity="0.25" d="M369.5 347C373.09 347 376 344.09 376 340.5C376 336.91 373.09 334 369.5 334C365.91 334 363 336.91 363 340.5C363 344.09 365.91 347 369.5 347Z" fill="url(#paint48_linear_20_128)"/>
<path opacity="0.25" d="M57 367.007C57.0014 366.809 56.9437 366.614 56.8344 366.449C56.725 366.283 56.5689 366.154 56.3859 366.077C56.2029 366.001 56.0013 365.981 55.8066 366.019C55.612 366.057 55.4332 366.153 55.2929 366.293C55.1526 366.433 55.0572 366.612 55.0189 366.807C54.9805 367.001 55.0009 367.203 55.0775 367.386C55.154 367.569 55.2833 367.725 55.4488 367.834C55.6143 367.944 55.8086 368.001 56.007 368C56.2698 367.998 56.5213 367.893 56.7071 367.707C56.8929 367.521 56.9981 367.27 57 367.007Z" fill="url(#paint49_linear_20_128)"/>
<path opacity="0.25" d="M101.006 338C100.413 337.999 99.8317 338.174 99.3373 338.503C98.843 338.832 98.4575 339.301 98.2296 339.849C98.0017 340.397 97.9418 341.001 98.0573 341.584C98.1729 342.166 98.4587 342.701 98.8787 343.121C99.2986 343.541 99.8338 343.827 100.416 343.943C100.999 344.058 101.603 343.998 102.151 343.77C102.699 343.543 103.168 343.157 103.497 342.663C103.826 342.168 104.001 341.587 104 340.994C104 340.6 103.923 340.211 103.772 339.848C103.622 339.485 103.401 339.155 103.123 338.877C102.845 338.599 102.515 338.378 102.152 338.228C101.789 338.077 101.4 338 101.006 338Z" fill="url(#paint50_linear_20_128)"/>
<path opacity="0.25" d="M146 360C144.616 360 143.262 360.411 142.111 361.18C140.96 361.949 140.063 363.042 139.533 364.321C139.003 365.6 138.864 367.008 139.135 368.366C139.405 369.724 140.071 370.971 141.05 371.95C142.029 372.929 143.277 373.595 144.634 373.865C145.992 374.136 147.4 373.997 148.679 373.467C149.958 372.937 151.051 372.04 151.82 370.889C152.589 369.738 153 368.384 153 367C152.998 365.144 152.26 363.364 150.948 362.052C149.636 360.74 147.856 360.002 146 360Z" fill="url(#paint51_linear_20_128)"/>
<path opacity="0.25" d="M235.5 362C234.61 362 233.74 362.264 233 362.758C232.26 363.253 231.683 363.956 231.343 364.778C231.002 365.6 230.913 366.505 231.086 367.378C231.26 368.251 231.689 369.053 232.318 369.682C232.947 370.311 233.749 370.74 234.622 370.914C235.495 371.087 236.4 370.998 237.222 370.657C238.044 370.317 238.747 369.74 239.242 369C239.736 368.26 240 367.39 240 366.5C240.001 365.909 239.885 365.323 239.659 364.777C239.433 364.231 239.102 363.734 238.684 363.316C238.266 362.898 237.769 362.567 237.223 362.341C236.677 362.115 236.091 361.999 235.5 362Z" fill="url(#paint52_linear_20_128)"/>
<path opacity="0.25" d="M279.994 346C280.983 346.001 281.95 345.709 282.773 345.16C283.596 344.612 284.238 343.831 284.618 342.918C284.997 342.004 285.097 340.999 284.905 340.028C284.712 339.058 284.237 338.167 283.538 337.467C282.839 336.767 281.948 336.29 280.978 336.097C280.008 335.903 279.002 336.002 278.088 336.38C277.174 336.758 276.393 337.399 275.843 338.222C275.293 339.044 275 340.011 275 341C275 342.325 275.526 343.596 276.462 344.533C277.399 345.471 278.669 345.998 279.994 346Z" fill="url(#paint53_linear_20_128)"/>
<path opacity="0.25" d="M331 366.506C331.001 365.418 330.65 364.354 329.992 363.449C329.333 362.543 328.397 361.838 327.301 361.42C326.204 361.003 324.998 360.893 323.833 361.105C322.669 361.317 321.599 361.84 320.76 362.609C319.92 363.378 319.348 364.358 319.116 365.425C318.884 366.492 319.002 367.598 319.456 368.603C319.91 369.609 320.679 370.468 321.666 371.073C322.653 371.677 323.813 372 325 372C326.59 372 328.115 371.421 329.24 370.391C330.365 369.361 330.998 367.964 331 366.506Z" fill="url(#paint54_linear_20_128)"/>
<path opacity="0.25" d="M7.84141 148.067L7.72538 148L0 152.435V152.988L7.72538 148.547L62.5236 180.023V242.977L7.72538 274.447L0 270.012V270.565L7.60324 274.927L7.72538 275L62.8779 243.317L63 243.25V179.75L7.84141 148.067Z" fill="url(#paint55_linear_20_128)"/>
<path opacity="0.25" d="M117.003 275L116.882 274.933L62 243.25V179.75L62.1215 179.683L117.003 148L117.118 148.067L172 179.75V243.25L171.885 243.317L117.003 275ZM62.48 242.977L117.003 274.447L171.538 242.977V180.023L117.015 148.553L62.4922 180.023L62.48 242.977Z" fill="url(#paint56_linear_20_128)"/>
<path opacity="0.25" d="M226.5 275L226.38 274.933L172 243.25V179.75L172.12 179.683L226.512 148L226.626 148.067L281 179.75V243.25L280.886 243.317L226.5 275ZM172.458 242.977L226.5 274.447L280.536 242.977V180.023L226.5 148.553L172.458 180.023V242.977Z" fill="url(#paint57_linear_20_128)"/>
<path opacity="0.25" d="M0 270V270.548L7.52147 274.805V337.195L0 341.452V342L7.8773 337.532L8 337.466V274.534L0 270Z" fill="url(#paint58_linear_20_128)"/>
<path opacity="0.25" d="M61.997 369L61.8815 368.927L7 337.25V273.75L7.12153 273.683L61.997 242L62.1185 242.067L117 273.75V337.25L116.878 337.317L61.997 369ZM7.47396 336.995L61.997 368.465L116.526 336.995V274.023L61.997 242.553L7.47396 274.023V336.995Z" fill="url(#paint59_linear_20_128)"/>
<path opacity="0.25" d="M171.997 369L171.882 368.927L117 337.25V273.75L117.115 273.683L171.997 242L172.118 242.067L227 273.75V337.25L226.878 337.317L171.997 369ZM117.474 336.995L171.997 368.465L226.526 336.995V274.023L171.997 242.553L117.474 274.023V336.995Z" fill="url(#paint60_linear_20_128)"/>
<path opacity="0.25" d="M280.997 369L280.875 368.927L226 337.25V273.75L226.115 273.683L280.997 242L281.118 242.067L336 273.75V337.25L335.878 337.317L280.997 369ZM226.474 336.995L280.997 368.465L335.52 336.995V274.023L280.997 242.553L226.474 274.023V336.995Z" fill="url(#paint61_linear_20_128)"/>
<path opacity="0.25" d="M7.84141 337.066L7.72538 337L0 341.41V341.96L7.72538 337.544L62.5236 368.841V387H63V368.569L7.84141 337.066Z" fill="url(#paint62_linear_20_128)"/>
<path opacity="0.25" d="M62.474 387V368.841L116.997 337.544L171.526 368.841V387H172V368.569L117.118 337.066L116.997 337L62.1155 368.497L62 368.569V387H62.474Z" fill="url(#paint63_linear_20_128)"/>
<path opacity="0.25" d="M172.47 387V368.841L226.497 337.544L280.524 368.841V387H281V368.569L226.617 337.066L226.497 337L172.114 368.497L172 368.569V387H172.47Z" fill="url(#paint64_linear_20_128)"/>
<path opacity="0.25" d="M281.48 387V368.841L336.003 337.544L390.526 368.841V387H391V368.569L336.118 337.066L336.003 337L281.122 368.497L281 368.569V387H281.48Z" fill="url(#paint65_linear_20_128)"/>
<path opacity="0.25" d="M6.92464 148L0 152.03V154.898L6.92464 150.867L76.539 191.431V272.569L6.92464 313.133L0 309.096V311.964L6.92464 316L79 274V190L6.92464 148Z" fill="url(#paint66_linear_20_128)"/>
<path opacity="0.25" d="M149.497 316L77 274V190L149.497 148L222 190V274L149.497 316ZM79.4754 272.588L149.497 313.145L219.525 272.588V191.449L149.497 150.891L79.4754 191.449V272.588Z" fill="url(#paint67_linear_20_128)"/>
<path opacity="0.25" d="M0 309V311.836L5.5858 315.118V387H8V313.703L0 309Z" fill="url(#paint68_linear_20_128)"/>
<path opacity="0.25" d="M8.47542 387V315.019L78.497 274.84L148.525 315.019V387H151V313.602L78.497 272L6 313.602V387H8.47542Z" fill="url(#paint69_linear_20_128)"/>
<path opacity="0.25" d="M150.475 387V315.019L220.503 274.84L290.525 315.019V387H293V313.602L220.503 272L148 313.602V387H150.475Z" fill="url(#paint70_linear_20_128)"/>
<path opacity="0.25" d="M293.475 387V315.019L363.503 274.84L433.525 315.019V387H436V313.602L363.503 272L291 313.602V387H293.475Z" fill="url(#paint71_linear_20_128)"/>
<path opacity="0.25" d="M62.4709 249C63.7577 249.006 65.0173 248.629 66.09 247.919C67.1628 247.208 68.0004 246.195 68.4968 245.008C68.9933 243.82 69.1261 242.513 68.8786 241.25C68.6311 239.987 68.0144 238.826 67.1065 237.914C66.1986 237.002 65.0405 236.38 63.7788 236.127C62.5172 235.874 61.2087 236.001 60.0193 236.492C58.8299 236.983 57.813 237.816 57.0975 238.886C56.382 239.955 56 241.213 56 242.5C56 244.219 56.6808 245.868 57.8935 247.086C59.1062 248.304 60.7521 248.992 62.4709 249Z" fill="url(#paint72_linear_20_128)"/>
<path opacity="0.25" d="M336 279C338.761 279 341 276.761 341 274C341 271.239 338.761 269 336 269C333.239 269 331 271.239 331 274C331 276.761 333.239 279 336 279Z" fill="url(#paint73_linear_20_128)"/>
<path opacity="0.25" d="M281 235C279.418 235 277.871 235.469 276.555 236.348C275.24 237.227 274.214 238.477 273.609 239.939C273.003 241.4 272.845 243.009 273.154 244.561C273.462 246.113 274.224 247.538 275.343 248.657C276.462 249.776 277.887 250.538 279.439 250.846C280.991 251.155 282.6 250.997 284.061 250.391C285.523 249.786 286.773 248.76 287.652 247.445C288.531 246.129 289 244.582 289 243C289 240.878 288.157 238.843 286.657 237.343C285.157 235.843 283.122 235 281 235Z" fill="url(#paint74_linear_20_128)"/>
<path opacity="0.25" d="M7.50151 266.012C5.95174 266.017 4.43294 266.447 3.11033 267.255C1.78772 268.064 0.711938 269.22 0 270.597V278.474C0.703308 279.805 1.74724 280.925 3.02503 281.72C4.30281 282.514 5.76857 282.955 7.27238 282.997C8.77618 283.038 10.2641 282.68 11.5838 281.957C12.9036 281.234 14.0078 280.173 14.7836 278.883C15.5594 277.593 15.9789 276.12 15.9992 274.615C16.0195 273.109 15.6399 271.625 14.8991 270.315C14.1584 269.004 13.0831 267.914 11.7833 267.156C10.4836 266.398 9.00589 265.999 7.50151 266V266.012Z" fill="url(#paint75_linear_20_128)"/>
<path opacity="0.25" d="M62.5 373C63.1925 373 63.8694 372.765 64.4451 372.325C65.0208 371.886 65.4694 371.261 65.7341 370.529C65.9989 369.798 66.0678 368.993 65.9323 368.217C65.7968 367.441 65.4629 366.728 64.9729 366.169C64.4828 365.61 63.8587 365.23 63.1794 365.076C62.5 364.922 61.7961 365.003 61.1567 365.306C60.5173 365.61 59.971 366.124 59.5871 366.782C59.2032 367.441 58.9989 368.215 59 369.006C59.0015 370.066 59.3709 371.082 60.0271 371.831C60.6833 372.579 61.5727 373 62.5 373Z" fill="url(#paint76_linear_20_128)"/>
<path opacity="0.25" d="M117.011 345C118.395 344.998 119.748 344.556 120.897 343.73C122.047 342.904 122.942 341.732 123.47 340.362C123.998 338.991 124.135 337.483 123.864 336.029C123.593 334.575 122.925 333.24 121.946 332.192C120.966 331.145 119.719 330.432 118.361 330.143C117.004 329.855 115.597 330.004 114.319 330.572C113.04 331.14 111.948 332.101 111.179 333.335C110.41 334.568 110 336.017 110 337.5C110 338.486 110.181 339.462 110.534 340.373C110.886 341.284 111.403 342.111 112.054 342.808C112.706 343.504 113.479 344.056 114.329 344.433C115.18 344.809 116.091 345.002 117.011 345Z" fill="url(#paint77_linear_20_128)"/>
<path opacity="0.25" d="M117 269C116.011 269 115.044 269.323 114.222 269.927C113.4 270.531 112.759 271.39 112.381 272.395C112.002 273.4 111.903 274.506 112.096 275.573C112.289 276.64 112.765 277.62 113.464 278.389C114.164 279.158 115.055 279.682 116.025 279.894C116.994 280.107 118 279.998 118.913 279.581C119.827 279.165 120.608 278.46 121.157 277.556C121.707 276.651 122 275.588 122 274.5C122 273.041 121.473 271.642 120.536 270.611C119.598 269.579 118.326 269 117 269Z" fill="url(#paint78_linear_20_128)"/>
<path opacity="0.25" d="M172 249C173.187 249 174.347 248.648 175.333 247.989C176.32 247.33 177.089 246.392 177.543 245.296C177.997 244.2 178.116 242.993 177.885 241.829C177.653 240.666 177.082 239.596 176.243 238.757C175.404 237.918 174.334 237.347 173.171 237.115C172.007 236.884 170.8 237.003 169.704 237.457C168.608 237.911 167.67 238.68 167.011 239.667C166.352 240.653 166 241.813 166 243C165.999 243.788 166.154 244.569 166.455 245.297C166.756 246.025 167.198 246.687 167.756 247.244C168.313 247.802 168.975 248.244 169.703 248.545C170.431 248.846 171.212 249.001 172 249Z" fill="url(#paint79_linear_20_128)"/>
<path opacity="0.25" d="M233 274.006C233.001 272.621 232.621 271.267 231.907 270.115C231.193 268.963 230.178 268.065 228.99 267.534C227.802 267.003 226.495 266.864 225.233 267.134C223.972 267.404 222.813 268.071 221.904 269.05C220.994 270.03 220.375 271.277 220.125 272.636C219.874 273.994 220.003 275.402 220.496 276.682C220.989 277.961 221.823 279.054 222.892 279.823C223.962 280.592 225.22 281.001 226.506 281C228.228 280.998 229.879 280.261 231.096 278.95C232.314 277.639 232.998 275.861 233 274.006Z" fill="url(#paint80_linear_20_128)"/>
<path opacity="0.25" d="M281.494 374C282.582 374.001 283.646 373.709 284.552 373.16C285.457 372.611 286.163 371.83 286.58 370.916C286.997 370.002 287.107 368.996 286.895 368.026C286.683 367.055 286.159 366.164 285.389 365.464C284.62 364.765 283.639 364.289 282.571 364.096C281.504 363.903 280.398 364.003 279.392 364.382C278.387 364.761 277.528 365.403 276.924 366.226C276.32 367.049 275.999 368.016 276 369.006C276 370.33 276.579 371.601 277.609 372.537C278.639 373.474 280.037 374 281.494 374Z" fill="url(#paint81_linear_20_128)"/>
<path opacity="0.25" d="M336 343C339.314 343 342 340.538 342 337.5C342 334.462 339.314 332 336 332C332.686 332 330 334.462 330 337.5C330 340.538 332.686 343 336 343Z" fill="url(#paint82_linear_20_128)"/>
<path opacity="0.25" d="M7.49999 335C7.00531 335 6.52175 335.147 6.11051 335.422C5.69927 335.697 5.37885 336.087 5.18979 336.545C5.00073 337.002 4.95153 337.505 5.04843 337.99C5.14533 338.475 5.38397 338.92 5.73414 339.27C6.08431 339.619 6.53027 339.857 7.01557 339.953C7.50088 340.048 8.00371 339.998 8.46043 339.808C8.91715 339.618 9.30723 339.297 9.58128 338.885C9.85534 338.473 10.0011 337.989 9.99999 337.495C9.99999 337.167 9.93529 336.842 9.80959 336.539C9.68389 336.236 9.49965 335.96 9.26744 335.729C9.03522 335.497 8.75958 335.313 8.4563 335.188C8.15301 335.063 7.82805 334.999 7.49999 335Z" fill="url(#paint83_linear_20_128)"/>
<path opacity="0.25" d="M172 362C170.616 362 169.262 362.411 168.111 363.18C166.96 363.949 166.063 365.042 165.533 366.321C165.003 367.6 164.864 369.008 165.135 370.366C165.405 371.724 166.071 372.971 167.05 373.95C168.029 374.929 169.276 375.595 170.634 375.865C171.992 376.136 173.4 375.997 174.679 375.467C175.958 374.937 177.051 374.04 177.82 372.889C178.589 371.738 179 370.384 179 369C179.001 368.081 178.82 367.17 178.469 366.32C178.117 365.471 177.602 364.699 176.951 364.049C176.301 363.398 175.529 362.883 174.68 362.531C173.83 362.18 172.919 361.999 172 362Z" fill="url(#paint84_linear_20_128)"/>
<path opacity="0.25" d="M226.5 341C228.433 341 230 339.433 230 337.5C230 335.567 228.433 334 226.5 334C224.567 334 223 335.567 223 337.5C223 339.433 224.567 341 226.5 341Z" fill="url(#paint85_linear_20_128)"/>
<path opacity="0.25" d="M390.5 373C392.985 373 395 371.209 395 369C395 366.791 392.985 365 390.5 365C388.015 365 386 366.791 386 369C386 371.209 388.015 373 390.5 373Z" fill="url(#paint86_linear_20_128)"/>
<defs>
<linearGradient id="paint0_linear_20_128" x1="308.243" y1="445.496" x2="-106.477" y2="-191.653" gradientUnits="userSpaceOnUse">
<stop stop-color="#52BBE8"/>
<stop offset="0.2" stop-color="#69C3EB"/>
<stop offset="0.6" stop-color="#A3D8F1"/>
<stop offset="1" stop-color="#E1EFF8"/>
</linearGradient>
<linearGradient id="paint1_linear_20_128" x1="361.674" y1="408.515" x2="-55.115" y2="-223.899" gradientUnits="userSpaceOnUse">
<stop stop-color="#52BBE8"/>
<stop offset="0.2" stop-color="#69C3EB"/>
<stop offset="0.6" stop-color="#A3D8F1"/>
<stop offset="1" stop-color="#E1EFF8"/>
</linearGradient>
<linearGradient id="paint2_linear_20_128" x1="395.992" y1="382.384" x2="-13.1652" y2="-248.882" gradientUnits="userSpaceOnUse">
<stop stop-color="#52BBE8"/>
<stop offset="0.2" stop-color="#69C3EB"/>
<stop offset="0.6" stop-color="#A3D8F1"/>
<stop offset="1" stop-color="#E1EFF8"/>
</linearGradient>
<linearGradient id="paint3_linear_20_128" x1="308.978" y1="441.465" x2="-100.637" y2="-193.67" gradientUnits="userSpaceOnUse">
<stop stop-color="#52BBE8"/>
<stop offset="0.2" stop-color="#69C3EB"/>
<stop offset="0.6" stop-color="#A3D8F1"/>
<stop offset="1" stop-color="#E1EFF8"/>
</linearGradient>
<linearGradient id="paint4_linear_20_128" x1="374.746" y1="397.664" x2="-35.7691" y2="-235.12" gradientUnits="userSpaceOnUse">
<stop stop-color="#52BBE8"/>
<stop offset="0.2" stop-color="#69C3EB"/>
<stop offset="0.6" stop-color="#A3D8F1"/>
<stop offset="1" stop-color="#E1EFF8"/>
</linearGradient>
<linearGradient id="paint5_linear_20_128" x1="283.023" y1="420.556" x2="-220.427" y2="-351.067" gradientUnits="userSpaceOnUse">
<stop stop-color="#52BBE8"/>
<stop offset="0.2" stop-color="#69C3EB"/>
<stop offset="0.6" stop-color="#A3D8F1"/>
<stop offset="1" stop-color="#E1EFF8"/>
</linearGradient>
<linearGradient id="paint6_linear_20_128" x1="348.603" y1="378.313" x2="-154.563" y2="-393.964" gradientUnits="userSpaceOnUse">
<stop stop-color="#52BBE8"/>
<stop offset="0.2" stop-color="#69C3EB"/>
<stop offset="0.6" stop-color="#A3D8F1"/>
<stop offset="1" stop-color="#E1EFF8"/>
</linearGradient>
<linearGradient id="paint7_linear_20_128" x1="531.613" y1="755.822" x2="73.5687" y2="49.099" gradientUnits="userSpaceOnUse">
<stop stop-color="#52BBE8"/>
<stop offset="0.2" stop-color="#69C3EB"/>
<stop offset="0.6" stop-color="#A3D8F1"/>
<stop offset="1" stop-color="#E1EFF8"/>
</linearGradient>
<linearGradient id="paint8_linear_20_128" x1="464.447" y1="798.598" x2="6.36477" y2="91.8642" gradientUnits="userSpaceOnUse">
<stop stop-color="#52BBE8"/>
<stop offset="0.2" stop-color="#69C3EB"/>
<stop offset="0.6" stop-color="#A3D8F1"/>
<stop offset="1" stop-color="#E1EFF8"/>
</linearGradient>
<linearGradient id="paint9_linear_20_128" x1="527.972" y1="757.68" x2="69.8842" y2="50.9407" gradientUnits="userSpaceOnUse">
<stop stop-color="#52BBE8"/>
<stop offset="0.2" stop-color="#69C3EB"/>
<stop offset="0.6" stop-color="#A3D8F1"/>
<stop offset="1" stop-color="#E1EFF8"/>
</linearGradient>
<linearGradient id="paint10_linear_20_128" x1="590.467" y1="716.763" x2="132.379" y2="10.0233" gradientUnits="userSpaceOnUse">
<stop stop-color="#52BBE8"/>
<stop offset="0.2" stop-color="#69C3EB"/>
<stop offset="0.6" stop-color="#A3D8F1"/>
<stop offset="1" stop-color="#E1EFF8"/>
</linearGradient>
<linearGradient id="paint11_linear_20_128" x1="654.005" y1="675.845" x2="195.923" y2="-30.8942" gradientUnits="userSpaceOnUse">
<stop stop-color="#52BBE8"/>
<stop offset="0.2" stop-color="#69C3EB"/>
<stop offset="0.6" stop-color="#A3D8F1"/>
<stop offset="1" stop-color="#E1EFF8"/>
</linearGradient>
<linearGradient id="paint12_linear_20_128" x1="460.8" y1="801.393" x2="2.74951" y2="94.6764" gradientUnits="userSpaceOnUse">
<stop stop-color="#52BBE8"/>
<stop offset="0.2" stop-color="#69C3EB"/>
<stop offset="0.6" stop-color="#A3D8F1"/>
<stop offset="1" stop-color="#E1EFF8"/>
</linearGradient>
<linearGradient id="paint13_linear_20_128" x1="523.295" y1="760.478" x2="65.2507" y2="53.7614" gradientUnits="userSpaceOnUse">
<stop stop-color="#52BBE8"/>
<stop offset="0.2" stop-color="#69C3EB"/>
<stop offset="0.6" stop-color="#A3D8F1"/>
<stop offset="1" stop-color="#E1EFF8"/>
</linearGradient>
<linearGradient id="paint14_linear_20_128" x1="586.839" y1="719.563" x2="128.794" y2="12.8463" gradientUnits="userSpaceOnUse">
<stop stop-color="#52BBE8"/>
<stop offset="0.2" stop-color="#69C3EB"/>
<stop offset="0.6" stop-color="#A3D8F1"/>
<stop offset="1" stop-color="#E1EFF8"/>
</linearGradient>
<linearGradient id="paint15_linear_20_128" x1="398.797" y1="838.588" x2="-55.1141" y2="133.732" gradientUnits="userSpaceOnUse">
<stop stop-color="#52BBE8"/>
<stop offset="0.2" stop-color="#69C3EB"/>
<stop offset="0.6" stop-color="#A3D8F1"/>
<stop offset="1" stop-color="#E1EFF8"/>
</linearGradient>
<linearGradient id="paint16_linear_20_128" x1="462.311" y1="797.936" x2="8.39926" y2="93.0792" gradientUnits="userSpaceOnUse">
<stop stop-color="#52BBE8"/>
<stop offset="0.2" stop-color="#69C3EB"/>
<stop offset="0.6" stop-color="#A3D8F1"/>
<stop offset="1" stop-color="#E1EFF8"/>
</linearGradient>
<linearGradient id="paint17_linear_20_128" x1="524.85" y1="757.283" x2="70.9569" y2="52.3987" gradientUnits="userSpaceOnUse">
<stop stop-color="#52BBE8"/>
<stop offset="0.2" stop-color="#69C3EB"/>
<stop offset="0.6" stop-color="#A3D8F1"/>
<stop offset="1" stop-color="#E1EFF8"/>
</linearGradient>
<linearGradient id="paint18_linear_20_128" x1="588.367" y1="716.624" x2="134.468" y2="11.7459" gradientUnits="userSpaceOnUse">
<stop stop-color="#52BBE8"/>
<stop offset="0.2" stop-color="#69C3EB"/>
<stop offset="0.6" stop-color="#A3D8F1"/>
<stop offset="1" stop-color="#E1EFF8"/>
</linearGradient>
<linearGradient id="paint19_linear_20_128" x1="470.648" y1="794.208" x2="14.576" y2="86.8013" gradientUnits="userSpaceOnUse">
<stop stop-color="#52BBE8"/>
<stop offset="0.2" stop-color="#69C3EB"/>
<stop offset="0.6" stop-color="#A3D8F1"/>
<stop offset="1" stop-color="#E1EFF8"/>
</linearGradient>
<linearGradient id="paint20_linear_20_128" x1="545.609" y1="745.515" x2="89.1175" y2="38.7201" gradientUnits="userSpaceOnUse">
<stop stop-color="#52BBE8"/>
<stop offset="0.2" stop-color="#69C3EB"/>
<stop offset="0.6" stop-color="#A3D8F1"/>
<stop offset="1" stop-color="#E1EFF8"/>
</linearGradient>
<linearGradient id="paint21_linear_20_128" x1="624.44" y1="692.162" x2="166.545" y2="-11.0279" gradientUnits="userSpaceOnUse">
<stop stop-color="#52BBE8"/>
<stop offset="0.2" stop-color="#69C3EB"/>
<stop offset="0.6" stop-color="#A3D8F1"/>
<stop offset="1" stop-color="#E1EFF8"/>
</linearGradient>
<linearGradient id="paint22_linear_20_128" x1="398.129" y1="835.83" x2="-58.6636" y2="135.372" gradientUnits="userSpaceOnUse">
<stop stop-color="#52BBE8"/>
<stop offset="0.2" stop-color="#69C3EB"/>
<stop offset="0.6" stop-color="#A3D8F1"/>
<stop offset="1" stop-color="#E1EFF8"/>
</linearGradient>
<linearGradient id="paint23_linear_20_128" x1="457.669" y1="802" x2="1.15487" y2="95.1921" gradientUnits="userSpaceOnUse">
<stop stop-color="#52BBE8"/>
<stop offset="0.2" stop-color="#69C3EB"/>
<stop offset="0.6" stop-color="#A3D8F1"/>
<stop offset="1" stop-color="#E1EFF8"/>
</linearGradient>
<linearGradient id="paint24_linear_20_128" x1="540.108" y1="748.776" x2="83.5932" y2="41.9679" gradientUnits="userSpaceOnUse">
<stop stop-color="#52BBE8"/>
<stop offset="0.2" stop-color="#69C3EB"/>
<stop offset="0.6" stop-color="#A3D8F1"/>
<stop offset="1" stop-color="#E1EFF8"/>
</linearGradient>
<linearGradient id="paint25_linear_20_128" x1="386.83" y1="851.25" x2="-72.541" y2="142.358" gradientUnits="userSpaceOnUse">
<stop stop-color="#52BBE8"/>
<stop offset="0.2" stop-color="#69C3EB"/>
<stop offset="0.6" stop-color="#A3D8F1"/>
<stop offset="1" stop-color="#E1EFF8"/>
</linearGradient>
<linearGradient id="paint26_linear_20_128" x1="453.167" y1="807.905" x2="-6.50238" y2="99.6883" gradientUnits="userSpaceOnUse">
<stop stop-color="#52BBE8"/>
<stop offset="0.2" stop-color="#69C3EB"/>
<stop offset="0.6" stop-color="#A3D8F1"/>
<stop offset="1" stop-color="#E1EFF8"/>
</linearGradient>
<linearGradient id="paint27_linear_20_128" x1="532.811" y1="754.42" x2="71.5663" y2="49.7585" gradientUnits="userSpaceOnUse">
<stop stop-color="#52BBE8"/>
<stop offset="0.2" stop-color="#69C3EB"/>
<stop offset="0.6" stop-color="#A3D8F1"/>
<stop offset="1" stop-color="#E1EFF8"/>
</linearGradient>
<linearGradient id="paint28_linear_20_128" x1="382.662" y1="846.531" x2="-66.7224" y2="142.278" gradientUnits="userSpaceOnUse">
<stop stop-color="#52BBE8"/>
<stop offset="0.2" stop-color="#69C3EB"/>
<stop offset="0.6" stop-color="#A3D8F1"/>
<stop offset="1" stop-color="#E1EFF8"/>
</linearGradient>
<linearGradient id="paint29_linear_20_128" x1="465.034" y1="793.873" x2="15.6384" y2="89.6426" gradientUnits="userSpaceOnUse">
<stop stop-color="#52BBE8"/>
<stop offset="0.2" stop-color="#69C3EB"/>
<stop offset="0.6" stop-color="#A3D8F1"/>
<stop offset="1" stop-color="#E1EFF8"/>
</linearGradient>
<linearGradient id="paint30_linear_20_128" x1="547.434" y1="741.215" x2="98.0494" y2="36.9678" gradientUnits="userSpaceOnUse">
<stop stop-color="#52BBE8"/>
<stop offset="0.2" stop-color="#69C3EB"/>
<stop offset="0.6" stop-color="#A3D8F1"/>
<stop offset="1" stop-color="#E1EFF8"/>
</linearGradient>
<linearGradient id="paint31_linear_20_128" x1="627.545" y1="688.563" x2="176.417" y2="-11.8964" gradientUnits="userSpaceOnUse">
<stop stop-color="#52BBE8"/>
<stop offset="0.2" stop-color="#69C3EB"/>
<stop offset="0.6" stop-color="#A3D8F1"/>
<stop offset="1" stop-color="#E1EFF8"/>
</linearGradient>
<linearGradient id="paint32_linear_20_128" x1="636.322" y1="692.969" x2="174.635" y2="-19.8795" gradientUnits="userSpaceOnUse">
<stop stop-color="#52BBE8"/>
<stop offset="0.2" stop-color="#69C3EB"/>
<stop offset="0.6" stop-color="#A3D8F1"/>
<stop offset="1" stop-color="#E1EFF8"/>
</linearGradient>
<linearGradient id="paint33_linear_20_128" x1="695.186" y1="687.366" x2="178.252" y2="-38.228" gradientUnits="userSpaceOnUse">
<stop stop-color="#52BBE8"/>
<stop offset="0.2" stop-color="#69C3EB"/>
<stop offset="0.6" stop-color="#A3D8F1"/>
<stop offset="1" stop-color="#E1EFF8"/>
</linearGradient>
<linearGradient id="paint34_linear_20_128" x1="451.775" y1="830.597" x2="-20.5344" y2="101.359" gradientUnits="userSpaceOnUse">
<stop stop-color="#52BBE8"/>
<stop offset="0.2" stop-color="#69C3EB"/>
<stop offset="0.6" stop-color="#A3D8F1"/>
<stop offset="1" stop-color="#E1EFF8"/>
</linearGradient>
<linearGradient id="paint35_linear_20_128" x1="370.016" y1="869.551" x2="-157.583" y2="217.859" gradientUnits="userSpaceOnUse">
<stop stop-color="#52BBE8"/>
<stop offset="0.2" stop-color="#69C3EB"/>
<stop offset="0.6" stop-color="#A3D8F1"/>
<stop offset="1" stop-color="#E1EFF8"/>
</linearGradient>
<linearGradient id="paint36_linear_20_128" x1="407.753" y1="1026.22" x2="-273.046" y2="325.451" gradientUnits="userSpaceOnUse">
<stop stop-color="#52BBE8"/>
<stop offset="0.2" stop-color="#69C3EB"/>
<stop offset="0.6" stop-color="#A3D8F1"/>
<stop offset="1" stop-color="#E1EFF8"/>
</linearGradient>
<linearGradient id="paint37_linear_20_128" x1="460.834" y1="819.433" x2="-49.8884" y2="129.451" gradientUnits="userSpaceOnUse">
<stop stop-color="#52BBE8"/>
<stop offset="0.2" stop-color="#69C3EB"/>
<stop offset="0.6" stop-color="#A3D8F1"/>
<stop offset="1" stop-color="#E1EFF8"/>
</linearGradient>
<linearGradient id="paint38_linear_20_128" x1="496.441" y1="753.352" x2="52.8539" y2="68.4526" gradientUnits="userSpaceOnUse">
<stop stop-color="#52BBE8"/>
<stop offset="0.2" stop-color="#69C3EB"/>
<stop offset="0.6" stop-color="#A3D8F1"/>
<stop offset="1" stop-color="#E1EFF8"/>
</linearGradient>
<linearGradient id="paint39_linear_20_128" x1="552.792" y1="824.832" x2="-27.8656" y2="107.613" gradientUnits="userSpaceOnUse">
<stop stop-color="#52BBE8"/>
<stop offset="0.2" stop-color="#69C3EB"/>
<stop offset="0.6" stop-color="#A3D8F1"/>
<stop offset="1" stop-color="#E1EFF8"/>
</linearGradient>
<linearGradient id="paint40_linear_20_128" x1="563.36" y1="726.228" x2="112.189" y2="29.6206" gradientUnits="userSpaceOnUse">
<stop stop-color="#52BBE8"/>
<stop offset="0.2" stop-color="#69C3EB"/>
<stop offset="0.6" stop-color="#A3D8F1"/>
<stop offset="1" stop-color="#E1EFF8"/>
</linearGradient>
<linearGradient id="paint41_linear_20_128" x1="539.899" y1="733.753" x2="92.6219" y2="43.1601" gradientUnits="userSpaceOnUse">
<stop stop-color="#52BBE8"/>
<stop offset="0.2" stop-color="#69C3EB"/>
<stop offset="0.6" stop-color="#A3D8F1"/>
<stop offset="1" stop-color="#E1EFF8"/>
</linearGradient>
<linearGradient id="paint42_linear_20_128" x1="672.722" y1="662.217" x2="216.44" y2="-42.2854" gradientUnits="userSpaceOnUse">
<stop stop-color="#52BBE8"/>
<stop offset="0.2" stop-color="#69C3EB"/>
<stop offset="0.6" stop-color="#A3D8F1"/>
<stop offset="1" stop-color="#E1EFF8"/>
</linearGradient>
<linearGradient id="paint43_linear_20_128" x1="513.256" y1="787.837" x2="41.9438" y2="60.1313" gradientUnits="userSpaceOnUse">
<stop stop-color="#52BBE8"/>
<stop offset="0.2" stop-color="#69C3EB"/>
<stop offset="0.6" stop-color="#A3D8F1"/>
<stop offset="1" stop-color="#E1EFF8"/>
</linearGradient>
<linearGradient id="paint44_linear_20_128" x1="477.22" y1="783.19" x2="24.4313" y2="84.0836" gradientUnits="userSpaceOnUse">
<stop stop-color="#52BBE8"/>
<stop offset="0.2" stop-color="#69C3EB"/>
<stop offset="0.6" stop-color="#A3D8F1"/>
<stop offset="1" stop-color="#E1EFF8"/>
</linearGradient>
<linearGradient id="paint45_linear_20_128" x1="619.928" y1="718.367" x2="147.132" y2="-11.6207" gradientUnits="userSpaceOnUse">
<stop stop-color="#52BBE8"/>
<stop offset="0.2" stop-color="#69C3EB"/>
<stop offset="0.6" stop-color="#A3D8F1"/>
<stop offset="1" stop-color="#E1EFF8"/>
</linearGradient>
<linearGradient id="paint46_linear_20_128" x1="613.83" y1="665.466" x2="185.364" y2="3.92045" gradientUnits="userSpaceOnUse">
<stop stop-color="#52BBE8"/>
<stop offset="0.2" stop-color="#69C3EB"/>
<stop offset="0.6" stop-color="#A3D8F1"/>
<stop offset="1" stop-color="#E1EFF8"/>
</linearGradient>
<linearGradient id="paint47_linear_20_128" x1="636.925" y1="709.928" x2="156.267" y2="-32.2088" gradientUnits="userSpaceOnUse">
<stop stop-color="#52BBE8"/>
<stop offset="0.2" stop-color="#69C3EB"/>
<stop offset="0.6" stop-color="#A3D8F1"/>
<stop offset="1" stop-color="#E1EFF8"/>
</linearGradient>
<linearGradient id="paint48_linear_20_128" x1="604.584" y1="703.47" x2="150.307" y2="2.06025" gradientUnits="userSpaceOnUse">
<stop stop-color="#52BBE8"/>
<stop offset="0.2" stop-color="#69C3EB"/>
<stop offset="0.6" stop-color="#A3D8F1"/>
<stop offset="1" stop-color="#E1EFF8"/>
</linearGradient>
<linearGradient id="paint49_linear_20_128" x1="424.683" y1="936.246" x2="-106.373" y2="116.296" gradientUnits="userSpaceOnUse">
<stop stop-color="#52BBE8"/>
<stop offset="0.2" stop-color="#69C3EB"/>
<stop offset="0.6" stop-color="#A3D8F1"/>
<stop offset="1" stop-color="#E1EFF8"/>
</linearGradient>
<linearGradient id="paint50_linear_20_128" x1="440.156" y1="864.64" x2="-50.5878" y2="106.941" gradientUnits="userSpaceOnUse">
<stop stop-color="#52BBE8"/>
<stop offset="0.2" stop-color="#69C3EB"/>
<stop offset="0.6" stop-color="#A3D8F1"/>
<stop offset="1" stop-color="#E1EFF8"/>
</linearGradient>
<linearGradient id="paint51_linear_20_128" x1="431.892" y1="808.411" x2="-17.3591" y2="114.768" gradientUnits="userSpaceOnUse">
<stop stop-color="#52BBE8"/>
<stop offset="0.2" stop-color="#69C3EB"/>
<stop offset="0.6" stop-color="#A3D8F1"/>
<stop offset="1" stop-color="#E1EFF8"/>
</linearGradient>
<linearGradient id="paint52_linear_20_128" x1="511.996" y1="793.404" x2="34.0396" y2="55.4425" gradientUnits="userSpaceOnUse">
<stop stop-color="#52BBE8"/>
<stop offset="0.2" stop-color="#69C3EB"/>
<stop offset="0.6" stop-color="#A3D8F1"/>
<stop offset="1" stop-color="#E1EFF8"/>
</linearGradient>
<linearGradient id="paint53_linear_20_128" x1="548.459" y1="755.548" x2="81.807" y2="35.0409" gradientUnits="userSpaceOnUse">
<stop stop-color="#52BBE8"/>
<stop offset="0.2" stop-color="#69C3EB"/>
<stop offset="0.6" stop-color="#A3D8F1"/>
<stop offset="1" stop-color="#E1EFF8"/>
</linearGradient>
<linearGradient id="paint54_linear_20_128" x1="579.967" y1="727.327" x2="148.115" y2="-0.0653536" gradientUnits="userSpaceOnUse">
<stop stop-color="#52BBE8"/>
<stop offset="0.2" stop-color="#69C3EB"/>
<stop offset="0.6" stop-color="#A3D8F1"/>
<stop offset="1" stop-color="#E1EFF8"/>
</linearGradient>
<linearGradient id="paint55_linear_20_128" x1="404.908" y1="798.711" x2="-153.085" y2="-67.3129" gradientUnits="userSpaceOnUse">
<stop stop-color="#52BBE8"/>
<stop offset="0.2" stop-color="#69C3EB"/>
<stop offset="0.6" stop-color="#A3D8F1"/>
<stop offset="1" stop-color="#E1EFF8"/>
</linearGradient>
<linearGradient id="paint56_linear_20_128" x1="469.394" y1="755.509" x2="-89.7612" y2="-107.963" gradientUnits="userSpaceOnUse">
<stop stop-color="#52BBE8"/>
<stop offset="0.2" stop-color="#69C3EB"/>
<stop offset="0.6" stop-color="#A3D8F1"/>
<stop offset="1" stop-color="#E1EFF8"/>
</linearGradient>
<linearGradient id="paint57_linear_20_128" x1="543.666" y1="705.545" x2="-17.5257" y2="-153.335" gradientUnits="userSpaceOnUse">
<stop stop-color="#52BBE8"/>
<stop offset="0.2" stop-color="#69C3EB"/>
<stop offset="0.6" stop-color="#A3D8F1"/>
<stop offset="1" stop-color="#E1EFF8"/>
</linearGradient>
<linearGradient id="paint58_linear_20_128" x1="348.828" y1="830.797" x2="-201.046" y2="-34.2738" gradientUnits="userSpaceOnUse">
<stop stop-color="#52BBE8"/>
<stop offset="0.2" stop-color="#69C3EB"/>
<stop offset="0.6" stop-color="#A3D8F1"/>
<stop offset="1" stop-color="#E1EFF8"/>
</linearGradient>
<linearGradient id="paint59_linear_20_128" x1="387.294" y1="807.674" x2="-171.856" y2="-55.786" gradientUnits="userSpaceOnUse">
<stop stop-color="#52BBE8"/>
<stop offset="0.2" stop-color="#69C3EB"/>
<stop offset="0.6" stop-color="#A3D8F1"/>
<stop offset="1" stop-color="#E1EFF8"/>
</linearGradient>
<linearGradient id="paint60_linear_20_128" x1="464.931" y1="757.71" x2="-94.2243" y2="-105.756" gradientUnits="userSpaceOnUse">
<stop stop-color="#52BBE8"/>
<stop offset="0.2" stop-color="#69C3EB"/>
<stop offset="0.6" stop-color="#A3D8F1"/>
<stop offset="1" stop-color="#E1EFF8"/>
</linearGradient>
<linearGradient id="paint61_linear_20_128" x1="541.563" y1="707.746" x2="-17.5929" y2="-155.72" gradientUnits="userSpaceOnUse">
<stop stop-color="#52BBE8"/>
<stop offset="0.2" stop-color="#69C3EB"/>
<stop offset="0.6" stop-color="#A3D8F1"/>
<stop offset="1" stop-color="#E1EFF8"/>
</linearGradient>
<linearGradient id="paint62_linear_20_128" x1="344.882" y1="833.877" x2="-208.63" y2="-30.1022" gradientUnits="userSpaceOnUse">
<stop stop-color="#52BBE8"/>
<stop offset="0.2" stop-color="#69C3EB"/>
<stop offset="0.6" stop-color="#A3D8F1"/>
<stop offset="1" stop-color="#E1EFF8"/>
</linearGradient>
<linearGradient id="paint63_linear_20_128" x1="393.094" y1="801.583" x2="-161.578" y2="-59.865" gradientUnits="userSpaceOnUse">
<stop stop-color="#52BBE8"/>
<stop offset="0.2" stop-color="#69C3EB"/>
<stop offset="0.6" stop-color="#A3D8F1"/>
<stop offset="1" stop-color="#E1EFF8"/>
</linearGradient>
<linearGradient id="paint64_linear_20_128" x1="468.009" y1="751.897" x2="-88.7433" y2="-104.916" gradientUnits="userSpaceOnUse">
<stop stop-color="#52BBE8"/>
<stop offset="0.2" stop-color="#69C3EB"/>
<stop offset="0.6" stop-color="#A3D8F1"/>
<stop offset="1" stop-color="#E1EFF8"/>
</linearGradient>
<linearGradient id="paint65_linear_20_128" x1="547.362" y1="702.217" x2="-7.3032" y2="-159.225" gradientUnits="userSpaceOnUse">
<stop stop-color="#52BBE8"/>
<stop offset="0.2" stop-color="#69C3EB"/>
<stop offset="0.6" stop-color="#A3D8F1"/>
<stop offset="1" stop-color="#E1EFF8"/>
</linearGradient>
<linearGradient id="paint66_linear_20_128" x1="394.011" y1="803.417" x2="-168.425" y2="-57.0017" gradientUnits="userSpaceOnUse">
<stop stop-color="#52BBE8"/>
<stop offset="0.2" stop-color="#69C3EB"/>
<stop offset="0.6" stop-color="#A3D8F1"/>
<stop offset="1" stop-color="#E1EFF8"/>
</linearGradient>
<linearGradient id="paint67_linear_20_128" x1="482.277" y1="747.498" x2="-78.7157" y2="-115.867" gradientUnits="userSpaceOnUse">
<stop stop-color="#52BBE8"/>
<stop offset="0.2" stop-color="#69C3EB"/>
<stop offset="0.6" stop-color="#A3D8F1"/>
<stop offset="1" stop-color="#E1EFF8"/>
</linearGradient>
<linearGradient id="paint68_linear_20_128" x1="319.686" y1="842.005" x2="-238.478" y2="-4.83413" gradientUnits="userSpaceOnUse">
<stop stop-color="#52BBE8"/>
<stop offset="0.2" stop-color="#69C3EB"/>
<stop offset="0.6" stop-color="#A3D8F1"/>
<stop offset="1" stop-color="#E1EFF8"/>
</linearGradient>
<linearGradient id="paint69_linear_20_128" x1="378.271" y1="810.313" x2="-175.352" y2="-49.7353" gradientUnits="userSpaceOnUse">
<stop stop-color="#52BBE8"/>
<stop offset="0.2" stop-color="#69C3EB"/>
<stop offset="0.6" stop-color="#A3D8F1"/>
<stop offset="1" stop-color="#E1EFF8"/>
</linearGradient>
<linearGradient id="paint70_linear_20_128" x1="478.153" y1="745.682" x2="-75.4703" y2="-114.366" gradientUnits="userSpaceOnUse">
<stop stop-color="#52BBE8"/>
<stop offset="0.2" stop-color="#69C3EB"/>
<stop offset="0.6" stop-color="#A3D8F1"/>
<stop offset="1" stop-color="#E1EFF8"/>
</linearGradient>
<linearGradient id="paint71_linear_20_128" x1="579.034" y1="681.052" x2="25.4173" y2="-179.002" gradientUnits="userSpaceOnUse">
<stop stop-color="#52BBE8"/>
<stop offset="0.2" stop-color="#69C3EB"/>
<stop offset="0.6" stop-color="#A3D8F1"/>
<stop offset="1" stop-color="#E1EFF8"/>
</linearGradient>
<linearGradient id="paint72_linear_20_128" x1="401.325" y1="765.692" x2="-133.802" y2="-60.5407" gradientUnits="userSpaceOnUse">
<stop stop-color="#52BBE8"/>
<stop offset="0.2" stop-color="#69C3EB"/>
<stop offset="0.6" stop-color="#A3D8F1"/>
<stop offset="1" stop-color="#E1EFF8"/>
</linearGradient>
<linearGradient id="paint73_linear_20_128" x1="583.346" y1="655.899" x2="48.8397" y2="-169.38" gradientUnits="userSpaceOnUse">
<stop stop-color="#52BBE8"/>
<stop offset="0.2" stop-color="#69C3EB"/>
<stop offset="0.6" stop-color="#A3D8F1"/>
<stop offset="1" stop-color="#E1EFF8"/>
</linearGradient>
<linearGradient id="paint74_linear_20_128" x1="570.324" y1="689.718" x2="11.2233" y2="-173.528" gradientUnits="userSpaceOnUse">
<stop stop-color="#52BBE8"/>
<stop offset="0.2" stop-color="#69C3EB"/>
<stop offset="0.6" stop-color="#A3D8F1"/>
<stop offset="1" stop-color="#E1EFF8"/>
</linearGradient>
<linearGradient id="paint75_linear_20_128" x1="355.129" y1="811.699" x2="-191.78" y2="-31.9987" gradientUnits="userSpaceOnUse">
<stop stop-color="#52BBE8"/>
<stop offset="0.2" stop-color="#69C3EB"/>
<stop offset="0.6" stop-color="#A3D8F1"/>
<stop offset="1" stop-color="#E1EFF8"/>
</linearGradient>
<linearGradient id="paint76_linear_20_128" x1="337.91" y1="854.987" x2="-284.447" y2="14.1848" gradientUnits="userSpaceOnUse">
<stop stop-color="#52BBE8"/>
<stop offset="0.2" stop-color="#69C3EB"/>
<stop offset="0.6" stop-color="#A3D8F1"/>
<stop offset="1" stop-color="#E1EFF8"/>
</linearGradient>
<linearGradient id="paint77_linear_20_128" x1="394.59" y1="796.699" x2="-184.83" y2="-38.2826" gradientUnits="userSpaceOnUse">
<stop stop-color="#52BBE8"/>
<stop offset="0.2" stop-color="#69C3EB"/>
<stop offset="0.6" stop-color="#A3D8F1"/>
<stop offset="1" stop-color="#E1EFF8"/>
</linearGradient>
<linearGradient id="paint78_linear_20_128" x1="424.425" y1="796.632" x2="-181.021" y2="-53.2016" gradientUnits="userSpaceOnUse">
<stop stop-color="#52BBE8"/>
<stop offset="0.2" stop-color="#69C3EB"/>
<stop offset="0.6" stop-color="#A3D8F1"/>
<stop offset="1" stop-color="#E1EFF8"/>
</linearGradient>
<linearGradient id="paint79_linear_20_128" x1="494.253" y1="740.525" x2="-65.8396" y2="-124.253" gradientUnits="userSpaceOnUse">
<stop stop-color="#52BBE8"/>
<stop offset="0.2" stop-color="#69C3EB"/>
<stop offset="0.6" stop-color="#A3D8F1"/>
<stop offset="1" stop-color="#E1EFF8"/>
</linearGradient>
<linearGradient id="paint80_linear_20_128" x1="502.635" y1="733.145" x2="-84.7528" y2="-108.996" gradientUnits="userSpaceOnUse">
<stop stop-color="#52BBE8"/>
<stop offset="0.2" stop-color="#69C3EB"/>
<stop offset="0.6" stop-color="#A3D8F1"/>
<stop offset="1" stop-color="#E1EFF8"/>
</linearGradient>
<linearGradient id="paint81_linear_20_128" x1="517.95" y1="700.9" x2="20.7803" y2="-143.495" gradientUnits="userSpaceOnUse">
<stop stop-color="#52BBE8"/>
<stop offset="0.2" stop-color="#69C3EB"/>
<stop offset="0.6" stop-color="#A3D8F1"/>
<stop offset="1" stop-color="#E1EFF8"/>
</linearGradient>
<linearGradient id="paint82_linear_20_128" x1="578.59" y1="680.85" x2="58.2552" y2="-195.583" gradientUnits="userSpaceOnUse">
<stop stop-color="#52BBE8"/>
<stop offset="0.2" stop-color="#69C3EB"/>
<stop offset="0.6" stop-color="#A3D8F1"/>
<stop offset="1" stop-color="#E1EFF8"/>
</linearGradient>
<linearGradient id="paint83_linear_20_128" x1="296.882" y1="784.3" x2="-197.972" y2="20.2418" gradientUnits="userSpaceOnUse">
<stop stop-color="#52BBE8"/>
<stop offset="0.2" stop-color="#69C3EB"/>
<stop offset="0.6" stop-color="#A3D8F1"/>
<stop offset="1" stop-color="#E1EFF8"/>
</linearGradient>
<linearGradient id="paint84_linear_20_128" x1="432.239" y1="770.802" x2="-118.904" y2="-80.1615" gradientUnits="userSpaceOnUse">
<stop stop-color="#52BBE8"/>
<stop offset="0.2" stop-color="#69C3EB"/>
<stop offset="0.6" stop-color="#A3D8F1"/>
<stop offset="1" stop-color="#E1EFF8"/>
</linearGradient>
<linearGradient id="paint85_linear_20_128" x1="515.407" y1="783.573" x2="-100.546" y2="-167.464" gradientUnits="userSpaceOnUse">
<stop stop-color="#52BBE8"/>
<stop offset="0.2" stop-color="#69C3EB"/>
<stop offset="0.6" stop-color="#A3D8F1"/>
<stop offset="1" stop-color="#E1EFF8"/>
</linearGradient>
<linearGradient id="paint86_linear_20_128" x1="603.84" y1="661.798" x2="99.6557" y2="-213.975" gradientUnits="userSpaceOnUse">
<stop stop-color="#52BBE8"/>
<stop offset="0.2" stop-color="#69C3EB"/>
<stop offset="0.6" stop-color="#A3D8F1"/>
<stop offset="1" stop-color="#E1EFF8"/>
</linearGradient>
</defs>
</svg>
