<svg width="335" height="382" viewBox="0 0 335 382" fill="none" xmlns="http://www.w3.org/2000/svg">
<path opacity="0.3" d="M164.5 83L164.413 82.9511L124 59.7527V13.2473L124.087 13.1984L164.5 -10L164.587 -9.95113L205 13.2473V59.7527L204.913 59.8016L164.5 83ZM124.35 59.5518L164.5 82.5981L204.629 59.5518V13.4482L164.478 -9.59815L124.35 13.4482V59.5518Z" fill="url(#paint0_linear_20_224)"/>
<path opacity="0.3" d="M245.005 83L244.914 82.9511L205 59.7527V13.2473L205.086 13.1984L245 -10L245.086 -9.95113L285 13.2473V59.7527L284.914 59.8016L245.005 83ZM205.351 59.5518L245.005 82.5981L284.655 59.5518V13.4482L245.005 -9.59815L205.351 13.4482V59.5518Z" fill="url(#paint1_linear_20_224)"/>
<path opacity="0.3" d="M335 76.9126L325.182 82.5982L285.347 59.5464V13.4482L325.182 -9.59816L335 -3.91801V-4.31987L325.269 -9.95113L325.182 -10L285.087 13.1984L285 13.2473V59.7527L325.095 82.9511L325.182 83L335 77.3199V76.9126Z" fill="url(#paint2_linear_20_224)"/>
<path opacity="0.3" d="M204.5 153L204.413 152.946L164 129.749V83.2514L164.087 83.197L204.5 60L204.587 60.0489L245 83.2514V129.749L244.913 129.798L204.5 153ZM164.35 129.564L204.5 152.614L244.645 129.564V83.4523L204.5 60.4018L164.35 83.4523V129.564Z" fill="url(#paint3_linear_20_224)"/>
<path opacity="0.3" d="M285 153L284.914 152.946L245 129.749V83.2514L245.086 83.197L285 60L285.086 60.0489L325 83.2514V129.749L324.914 129.798L285 153ZM245.367 129.564L285 152.598L324.671 129.564V83.4523L285 60.4018L245.351 83.4523L245.367 129.564Z" fill="url(#paint4_linear_20_224)"/>
<path opacity="0.3" d="M335 134.599L325.352 129.023V82.9822L335 77.4013V77L325.092 82.7273L325 82.7815V129.224L335 135V134.599Z" fill="url(#paint5_linear_20_224)"/>
<path opacity="0.3" d="M245.022 222L244.914 221.973L205 198.77V152.251L205.086 152.202L245 129L245.086 129.054L285 152.251V198.749L284.914 198.803L245.022 222ZM205.367 198.548L245.022 221.598L284.671 198.548V152.469L245.022 129.424L205.367 152.469V198.548Z" fill="url(#paint6_linear_20_224)"/>
<path opacity="0.3" d="M335 215.913L325.182 221.598L285.347 198.548V152.452L325.182 129.407L335 135.087V134.685L325.269 129.054L325.182 129L285.087 152.202L285 152.251V198.749L325.095 221.951L325.182 222L335 216.315V215.913Z" fill="url(#paint7_linear_20_224)"/>
<path opacity="0.3" d="M335 273.599L325.352 268.023V221.977L335 216.401V216L325.092 221.727L325 221.776V268.224L335 274V273.599Z" fill="url(#paint8_linear_20_224)"/>
<path opacity="0.3" d="M164.35 387V361.215L204.5 338.398L244.65 361.215V387H245V361.016L204.587 338.054L204.5 338L164.087 360.968L164 361.016V387H164.35Z" fill="url(#paint9_linear_20_224)"/>
<path opacity="0.3" d="M245.345 387V361.215L285 338.398L324.649 361.215V387H325V361.016L285.086 338.054L285 338L245.086 360.968L245 361.016V387H245.345Z" fill="url(#paint10_linear_20_224)"/>
<path opacity="0.3" d="M335 101.883L310.832 87.9337V28.0608L335 14.1166V12L309 27.0025V88.992L335 104V101.883Z" fill="url(#paint11_linear_20_224)"/>
<path opacity="0.3" d="M258.003 301L205 270.241V208.754L258.003 178L311 208.754V270.241L258.003 301ZM206.813 269.196L258.003 298.9L309.192 269.196V209.772L258.003 180.068L206.813 209.772V269.196Z" fill="url(#paint12_linear_20_224)"/>
<path opacity="0.3" d="M201.852 387L153.831 359.351V299.851L205.503 270.103L257.175 299.851V359.351L209.153 387H212.803L259 360.402V298.799L205.503 268L152 298.799V360.402L198.197 387H201.852Z" fill="url(#paint13_linear_20_224)"/>
<path opacity="0.3" d="M310.169 270.103L335 284.489V282.386L310.169 268L257 298.799V360.402L302.914 387H306.542L258.814 359.351V299.851L310.169 270.103Z" fill="url(#paint14_linear_20_224)"/>
<path opacity="0.3" d="M335 375L314 387H317.599L335 377.055V375Z" fill="url(#paint15_linear_20_224)"/>
<path opacity="0.3" d="M3.61786 387L48.5 361.091L93.3821 387H97L48.5 359L0 387H3.61786Z" fill="url(#paint16_linear_20_224)"/>
<path opacity="0.3" d="M108.623 387L153.503 361.091L198.377 387H202L153.503 359L105 387H108.623Z" fill="url(#paint17_linear_20_224)"/>
<path opacity="0.3" d="M212.655 387L258 361.091L303.345 387H307L258 359L209 387H212.655Z" fill="url(#paint18_linear_20_224)"/>
<path opacity="0.3" d="M335 375L314 387H317.599L335 377.055V375Z" fill="url(#paint19_linear_20_224)"/>
<path opacity="0.3" d="M124.5 16C125.881 16 127 14.8807 127 13.5C127 12.1193 125.881 11 124.5 11C123.119 11 122 12.1193 122 13.5C122 14.8807 123.119 16 124.5 16Z" fill="url(#paint20_linear_20_224)"/>
<path opacity="0.3" d="M285 18C285.791 18 286.564 17.7361 287.222 17.2416C287.88 16.7472 288.393 16.0443 288.695 15.2221C288.998 14.3998 289.077 13.495 288.923 12.6221C288.769 11.7492 288.388 10.9474 287.828 10.318C287.269 9.68868 286.556 9.2601 285.78 9.08647C285.004 8.91283 284.2 9.00196 283.469 9.34255C282.738 9.68314 282.114 10.2599 281.674 10.9999C281.235 11.74 281 12.61 281 13.5C281 14.6935 281.421 15.8381 282.172 16.682C282.922 17.5259 283.939 18 285 18Z" fill="url(#paint21_linear_20_224)"/>
<path opacity="0.3" d="M48 13.5057C48.0011 12.813 47.7966 12.1355 47.4125 11.5591C47.0283 10.9826 46.4818 10.5331 45.842 10.2675C45.2022 10.0019 44.498 9.93211 43.8186 10.067C43.1391 10.2018 42.5149 10.5353 42.0251 11.0251C41.5353 11.515 41.2019 12.1391 41.067 12.8186C40.9321 13.4981 41.0019 14.2022 41.2675 14.842C41.5331 15.4818 41.9826 16.0284 42.559 16.4125C43.1355 16.7967 43.813 17.0011 44.5057 17C44.9648 17.0007 45.4195 16.9109 45.8438 16.7355C46.2681 16.5602 46.6536 16.3028 46.9782 15.9782C47.3028 15.6536 47.5602 15.2681 47.7355 14.8438C47.9109 14.4195 48.0007 13.9648 48 13.5057Z" fill="url(#paint22_linear_20_224)"/>
<path opacity="0.3" d="M204.994 16C205.588 16.0011 206.169 15.8261 206.663 15.4972C207.157 15.1682 207.542 14.7001 207.77 14.152C207.998 13.6039 208.058 13.0005 207.943 12.4182C207.828 11.8359 207.543 11.3008 207.123 10.8807C206.704 10.4606 206.169 10.1743 205.587 10.0581C205.005 9.94185 204.402 10.0009 203.853 10.2278C203.305 10.4547 202.836 10.8392 202.506 11.3327C202.176 11.8262 202 12.4064 202 13C202 13.7947 202.315 14.5569 202.877 15.1193C203.438 15.6818 204.2 15.9985 204.994 16Z" fill="url(#paint23_linear_20_224)"/>
<path opacity="0.3" d="M325 86C326.657 86 328 84.6569 328 83C328 81.3431 326.657 80 325 80C323.343 80 322 81.3431 322 83C322 84.6569 323.343 86 325 86Z" fill="url(#paint24_linear_20_224)"/>
<path opacity="0.3" d="M285 56C284.209 56 283.435 56.2054 282.777 56.5902C282.119 56.975 281.607 57.522 281.304 58.1618C281.001 58.8016 280.922 59.5056 281.077 60.1847C281.232 60.8638 281.614 61.4874 282.174 61.9767C282.734 62.466 283.447 62.7989 284.223 62.9334C285 63.0678 285.804 62.9978 286.535 62.7321C287.266 62.4664 287.89 62.017 288.329 61.4408C288.768 60.8645 289.001 60.1873 289 59.4949C289 59.0355 288.896 58.5806 288.695 58.1563C288.494 57.7319 288.2 57.3464 287.828 57.0218C287.457 56.6972 287.016 56.4399 286.53 56.2646C286.045 56.0892 285.525 55.9993 285 56Z" fill="url(#paint25_linear_20_224)"/>
<path opacity="0.3" d="M124.5 55C123.61 55 122.74 55.2639 122 55.7584C121.26 56.2529 120.683 56.9557 120.343 57.7779C120.002 58.6002 119.913 59.505 120.086 60.3779C120.26 61.2508 120.689 62.0527 121.318 62.682C121.947 63.3113 122.749 63.7399 123.622 63.9135C124.495 64.0872 125.4 63.9981 126.222 63.6575C127.044 63.3169 127.747 62.7401 128.242 62.0001C128.736 61.2601 129 60.39 129 59.5C128.998 58.307 128.524 57.1633 127.68 56.3197C126.837 55.4761 125.693 55.0015 124.5 55Z" fill="url(#paint26_linear_20_224)"/>
<path opacity="0.3" d="M160 82.4945C159.999 83.3848 160.262 84.2553 160.756 84.9961C161.25 85.7368 161.952 86.3144 162.774 86.6559C163.596 86.9973 164.501 87.0872 165.375 86.9142C166.248 86.7412 167.05 86.313 167.68 85.6839C168.31 85.0548 168.739 84.253 168.913 83.3799C169.087 82.5069 168.998 81.6018 168.658 80.7792C168.318 79.9566 167.741 79.2535 167.001 78.7588C166.26 78.2641 165.39 78 164.5 78C163.308 78 162.164 78.4733 161.32 79.3161C160.476 80.1588 160.001 81.302 160 82.4945Z" fill="url(#paint27_linear_20_224)"/>
<path opacity="0.3" d="M204.5 155C205.881 155 207 153.881 207 152.5C207 151.119 205.881 150 204.5 150C203.119 150 202 151.119 202 152.5C202 153.881 203.119 155 204.5 155Z" fill="url(#paint28_linear_20_224)"/>
<path opacity="0.3" d="M164.5 133C166.433 133 168 131.433 168 129.5C168 127.567 166.433 126 164.5 126C162.567 126 161 127.567 161 129.5C161 131.433 162.567 133 164.5 133Z" fill="url(#paint29_linear_20_224)"/>
<path opacity="0.3" d="M205 63C207.209 63 209 61.433 209 59.5C209 57.567 207.209 56 205 56C202.791 56 201 57.567 201 59.5C201 61.433 202.791 63 205 63Z" fill="url(#paint30_linear_20_224)"/>
<path opacity="0.3" d="M245 135C247.761 135 250 132.538 250 129.5C250 126.462 247.761 124 245 124C242.239 124 240 126.462 240 129.5C240 132.538 242.239 135 245 135Z" fill="url(#paint31_linear_20_224)"/>
<path opacity="0.3" d="M284.995 155C285.588 155.001 286.169 154.826 286.663 154.497C287.157 154.167 287.543 153.699 287.771 153.151C287.998 152.602 288.058 151.999 287.943 151.416C287.827 150.834 287.541 150.299 287.121 149.879C286.701 149.459 286.166 149.173 285.584 149.057C285.002 148.942 284.398 149.002 283.849 149.229C283.301 149.457 282.833 149.842 282.503 150.337C282.174 150.831 281.999 151.412 282 152.005C282 152.8 282.316 153.561 282.877 154.123C283.439 154.685 284.2 155 284.995 155Z" fill="url(#paint32_linear_20_224)"/>
<path opacity="0.3" d="M244.995 88C245.984 88.001 246.951 87.7086 247.774 87.1599C248.597 86.6111 249.239 85.8305 249.618 84.917C249.997 84.0035 250.097 82.998 249.905 82.0277C249.712 81.0575 249.236 80.1661 248.537 79.4663C247.838 78.7665 246.947 78.2898 245.977 78.0965C245.007 77.9031 244.002 78.0018 243.088 78.3801C242.174 78.7584 241.393 79.3993 240.843 80.2216C240.293 81.044 240 82.0109 240 83C240 84.3252 240.526 85.5962 241.463 86.5337C242.399 87.4712 243.67 87.9986 244.995 88Z" fill="url(#paint33_linear_20_224)"/>
<path opacity="0.3" d="M325.5 132C326.881 132 328 130.881 328 129.5C328 128.119 326.881 127 325.5 127C324.119 127 323 128.119 323 129.5C323 130.881 324.119 132 325.5 132Z" fill="url(#paint34_linear_20_224)"/>
<path opacity="0.3" d="M204.5 289C204.005 289 203.522 289.147 203.11 289.422C202.699 289.697 202.379 290.087 202.19 290.545C202.001 291.002 201.952 291.505 202.048 291.99C202.145 292.475 202.384 292.92 202.734 293.27C203.084 293.619 203.53 293.857 204.016 293.953C204.501 294.048 205.004 293.998 205.46 293.808C205.917 293.618 206.307 293.297 206.581 292.885C206.855 292.473 207.001 291.989 207 291.495C207 291.166 206.935 290.842 206.81 290.539C206.684 290.236 206.5 289.96 206.267 289.729C206.035 289.497 205.76 289.313 205.456 289.188C205.153 289.063 204.828 288.999 204.5 289Z" fill="url(#paint35_linear_20_224)"/>
<path opacity="0.3" d="M204.994 202C205.588 202.001 206.169 201.826 206.663 201.497C207.157 201.168 207.542 200.7 207.77 200.152C207.998 199.604 208.058 199 207.943 198.418C207.828 197.836 207.543 197.301 207.123 196.881C206.704 196.461 206.169 196.174 205.587 196.058C205.005 195.942 204.402 196.001 203.853 196.228C203.305 196.455 202.836 196.839 202.506 197.333C202.176 197.826 202 198.406 202 199C202 199.795 202.315 200.557 202.877 201.119C203.438 201.682 204.2 201.999 204.994 202Z" fill="url(#paint36_linear_20_224)"/>
<path opacity="0.3" d="M244.994 216C243.808 216.001 242.648 216.354 241.662 217.014C240.676 217.674 239.908 218.611 239.455 219.708C239.002 220.804 238.884 222.011 239.116 223.174C239.348 224.338 239.92 225.406 240.759 226.245C241.599 227.083 242.668 227.654 243.832 227.885C244.995 228.116 246.201 227.997 247.297 227.543C248.393 227.088 249.33 226.319 249.989 225.333C250.648 224.346 251 223.186 251 222C251 221.212 250.845 220.431 250.543 219.703C250.241 218.974 249.798 218.313 249.241 217.755C248.683 217.198 248.021 216.756 247.292 216.455C246.563 216.154 245.783 215.999 244.994 216Z" fill="url(#paint37_linear_20_224)"/>
<path opacity="0.3" d="M284.995 202C285.588 202.001 286.169 201.826 286.663 201.497C287.158 201.167 287.543 200.699 287.771 200.15C287.998 199.602 288.058 198.998 287.943 198.416C287.827 197.834 287.541 197.299 287.121 196.879C286.701 196.459 286.166 196.173 285.584 196.057C285.002 195.942 284.398 196.002 283.85 196.229C283.301 196.457 282.833 196.842 282.503 197.337C282.174 197.831 281.999 198.411 282 199.005C282 199.8 282.316 200.561 282.877 201.123C283.439 201.684 284.2 202 284.995 202Z" fill="url(#paint38_linear_20_224)"/>
<path opacity="0.3" d="M325.495 227C326.385 227.001 327.255 226.709 327.996 226.16C328.737 225.612 329.314 224.831 329.656 223.918C329.997 223.004 330.087 221.998 329.914 221.028C329.741 220.058 329.313 219.166 328.684 218.467C328.055 217.767 327.253 217.29 326.38 217.097C325.507 216.903 324.602 217.002 323.779 217.38C322.957 217.758 322.253 218.399 321.759 219.222C321.264 220.044 321 221.011 321 222C321 223.325 321.473 224.596 322.316 225.533C323.159 226.471 324.302 226.998 325.495 227Z" fill="url(#paint39_linear_20_224)"/>
<path opacity="0.3" d="M325 262C323.813 262 322.653 262.352 321.667 263.011C320.68 263.67 319.911 264.608 319.457 265.704C319.003 266.8 318.884 268.007 319.115 269.171C319.347 270.334 319.918 271.404 320.757 272.243C321.596 273.082 322.666 273.653 323.829 273.885C324.993 274.116 326.2 273.997 327.296 273.543C328.392 273.089 329.33 272.32 329.989 271.333C330.648 270.347 331 269.187 331 268C331 266.409 330.368 264.883 329.243 263.757C328.117 262.632 326.591 262 325 262Z" fill="url(#paint40_linear_20_224)"/>
<path opacity="0.3" d="M208 338C208 337.407 207.795 336.827 207.41 336.333C207.026 335.84 206.479 335.455 205.839 335.228C205.2 335.001 204.496 334.942 203.817 335.058C203.138 335.173 202.515 335.459 202.025 335.879C201.536 336.298 201.202 336.833 201.067 337.415C200.932 337.997 201.002 338.6 201.266 339.148C201.531 339.696 201.98 340.165 202.555 340.494C203.131 340.824 203.808 341 204.5 341C204.96 341.001 205.415 340.923 205.84 340.773C206.265 340.622 206.651 340.401 206.977 340.123C207.302 339.844 207.56 339.513 207.735 339.149C207.911 338.785 208.001 338.394 208 338Z" fill="url(#paint41_linear_20_224)"/>
<path opacity="0.3" d="M285 296C285.791 296 286.564 295.736 287.222 295.242C287.88 294.747 288.393 294.044 288.695 293.222C288.998 292.4 289.077 291.495 288.923 290.622C288.769 289.749 288.388 288.947 287.828 288.318C287.269 287.689 286.556 287.26 285.78 287.086C285.004 286.913 284.2 287.002 283.469 287.343C282.738 287.683 282.114 288.26 281.674 289C281.235 289.74 281 290.61 281 291.5C281 292.693 281.421 293.838 282.172 294.682C282.922 295.526 283.939 296 285 296Z" fill="url(#paint42_linear_20_224)"/>
<path opacity="0.3" d="M285 334C284.209 334 283.436 334.235 282.778 334.674C282.12 335.114 281.607 335.738 281.305 336.469C281.002 337.2 280.923 338.004 281.077 338.78C281.231 339.556 281.612 340.269 282.172 340.828C282.731 341.388 283.444 341.769 284.22 341.923C284.996 342.077 285.8 341.998 286.531 341.696C287.262 341.393 287.886 340.88 288.326 340.222C288.765 339.564 289 338.791 289 338C289 336.939 288.579 335.922 287.828 335.172C287.078 334.421 286.061 334 285 334Z" fill="url(#paint43_linear_20_224)"/>
<path opacity="0.3" d="M164.5 364C165.192 364 165.869 363.824 166.445 363.494C167.021 363.164 167.469 362.695 167.734 362.147C167.999 361.598 168.068 360.995 167.932 360.413C167.797 359.831 167.463 359.296 166.973 358.877C166.483 358.458 165.859 358.172 165.179 358.057C164.5 357.942 163.796 358.002 163.157 358.23C162.517 358.458 161.971 358.843 161.587 359.337C161.203 359.831 160.999 360.411 161 361.005C161 361.398 161.091 361.788 161.267 362.152C161.442 362.516 161.7 362.846 162.025 363.124C162.351 363.403 162.736 363.623 163.161 363.773C163.586 363.924 164.041 364.001 164.5 364Z" fill="url(#paint44_linear_20_224)"/>
<path opacity="0.3" d="M245 365C245.791 365 246.564 364.765 247.222 364.326C247.88 363.886 248.393 363.262 248.695 362.531C248.998 361.8 249.077 360.996 248.923 360.22C248.769 359.444 248.388 358.731 247.828 358.172C247.269 357.612 246.556 357.231 245.78 357.077C245.004 356.923 244.2 357.002 243.469 357.304C242.738 357.607 242.114 358.12 241.674 358.778C241.235 359.436 241 360.209 241 361C241 362.061 241.421 363.078 242.172 363.828C242.922 364.579 243.939 365 245 365Z" fill="url(#paint45_linear_20_224)"/>
<path opacity="0.3" d="M245.003 109L244.894 108.94L196 80.5V23.5L196.108 23.44L245.003 -5L245.106 -4.93455L294 23.5V80.5L293.892 80.56L245.003 109ZM196.422 80.2546L245.003 108.509L293.578 80.2546V23.7509L245.003 -4.50373L196.422 23.7509V80.2546Z" fill="url(#paint46_linear_20_224)"/>
<path opacity="0.3" d="M325 97.5047L294.421 79.7005V23.2996L325 5.49532V5L294.108 22.9947L294 23.0546V79.9454L325 98V97.5047Z" fill="url(#paint47_linear_20_224)"/>
<path opacity="0.3" d="M195.997 363L195.894 362.935L147 334.75V278.25L147.103 278.191L195.997 250L196.106 250.059L245 278.25V334.75L244.892 334.809L195.997 363ZM147.422 334.523L195.997 362.524L244.578 334.523V278.493L195.997 250.492L147.422 278.493V334.523Z" fill="url(#paint48_linear_20_224)"/>
<path opacity="0.3" d="M325 344.702L294.067 362.508L245.423 334.507V278.493L294.067 250.487L325 268.293V267.806L294.175 250.059L294.067 250L245.103 278.191L245 278.25V334.75L293.964 362.935L294.067 363L325 345.194V344.702Z" fill="url(#paint49_linear_20_224)"/>
<path opacity="0.3" d="M196.422 380V363.657L245 335.489L293.578 363.657V380H294V363.412L245.108 335.06L245 335L196.103 363.347L196 363.412V380H196.422Z" fill="url(#paint50_linear_20_224)"/>
<path opacity="0.3" d="M325 345L294.108 363.165L294 363.231V380H294.421V363.478L325 345.5V345Z" fill="url(#paint51_linear_20_224)"/>
<path opacity="0.3" d="M325 92.0435L260.891 55L196 92.5V167.5L260.891 205L325 167.957V92.0435ZM260.891 202.418L198.216 166.207V93.7717L260.891 57.5598L323.561 93.7717V166.207L260.891 202.418Z" fill="url(#paint52_linear_20_224)"/>
<path opacity="0.3" d="M196.997 315L132 277.5V202.5L196.997 165L262 202.5V277.5L196.997 315ZM134.23 276.239L197.008 312.451L259.781 276.239V203.793L196.997 167.582L134.23 203.793V276.239Z" fill="url(#paint53_linear_20_224)"/>
<path opacity="0.3" d="M325 312.25L324.67 312.44L262.208 276.223V203.777L324.67 167.56L325 167.75V165.19L324.67 165L260 202.5V277.5L324.67 315L325 314.81V312.25Z" fill="url(#paint54_linear_20_224)"/>
<defs>
<linearGradient id="paint0_linear_20_224" x1="432.294" y1="447.642" x2="23.7386" y2="-186.745" gradientUnits="userSpaceOnUse">
<stop stop-color="#52BBE8"/>
<stop offset="0.2" stop-color="#69C3EB"/>
<stop offset="0.6" stop-color="#A3D8F1"/>
<stop offset="1" stop-color="#E1EFF8"/>
</linearGradient>
<linearGradient id="paint1_linear_20_224" x1="485.955" y1="411.052" x2="75.3211" y2="-218.69" gradientUnits="userSpaceOnUse">
<stop stop-color="#52BBE8"/>
<stop offset="0.2" stop-color="#69C3EB"/>
<stop offset="0.6" stop-color="#A3D8F1"/>
<stop offset="1" stop-color="#E1EFF8"/>
</linearGradient>
<linearGradient id="paint2_linear_20_224" x1="536.886" y1="378.807" x2="127.007" y2="-252.639" gradientUnits="userSpaceOnUse">
<stop stop-color="#52BBE8"/>
<stop offset="0.2" stop-color="#69C3EB"/>
<stop offset="0.6" stop-color="#A3D8F1"/>
<stop offset="1" stop-color="#E1EFF8"/>
</linearGradient>
<linearGradient id="paint3_linear_20_224" x1="428.506" y1="450.397" x2="19.9902" y2="-183.974" gradientUnits="userSpaceOnUse">
<stop stop-color="#52BBE8"/>
<stop offset="0.2" stop-color="#69C3EB"/>
<stop offset="0.6" stop-color="#A3D8F1"/>
<stop offset="1" stop-color="#E1EFF8"/>
</linearGradient>
<linearGradient id="paint4_linear_20_224" x1="482.724" y1="413.809" x2="72.1239" y2="-215.918" gradientUnits="userSpaceOnUse">
<stop stop-color="#52BBE8"/>
<stop offset="0.2" stop-color="#69C3EB"/>
<stop offset="0.6" stop-color="#A3D8F1"/>
<stop offset="1" stop-color="#E1EFF8"/>
</linearGradient>
<linearGradient id="paint5_linear_20_224" x1="516.734" y1="391.618" x2="107.631" y2="-239.624" gradientUnits="userSpaceOnUse">
<stop stop-color="#52BBE8"/>
<stop offset="0.2" stop-color="#69C3EB"/>
<stop offset="0.6" stop-color="#A3D8F1"/>
<stop offset="1" stop-color="#E1EFF8"/>
</linearGradient>
<linearGradient id="paint6_linear_20_224" x1="423.02" y1="452.184" x2="12.4205" y2="-177.543" gradientUnits="userSpaceOnUse">
<stop stop-color="#52BBE8"/>
<stop offset="0.2" stop-color="#69C3EB"/>
<stop offset="0.6" stop-color="#A3D8F1"/>
<stop offset="1" stop-color="#E1EFF8"/>
</linearGradient>
<linearGradient id="paint7_linear_20_224" x1="473.649" y1="419.941" x2="63.8037" y2="-211.49" gradientUnits="userSpaceOnUse">
<stop stop-color="#52BBE8"/>
<stop offset="0.2" stop-color="#69C3EB"/>
<stop offset="0.6" stop-color="#A3D8F1"/>
<stop offset="1" stop-color="#E1EFF8"/>
</linearGradient>
<linearGradient id="paint8_linear_20_224" x1="453.482" y1="432.884" x2="44.3737" y2="-198.358" gradientUnits="userSpaceOnUse">
<stop stop-color="#52BBE8"/>
<stop offset="0.2" stop-color="#69C3EB"/>
<stop offset="0.6" stop-color="#A3D8F1"/>
<stop offset="1" stop-color="#E1EFF8"/>
</linearGradient>
<linearGradient id="paint9_linear_20_224" x1="305.684" y1="527.776" x2="-96.9972" y2="-103.909" gradientUnits="userSpaceOnUse">
<stop stop-color="#52BBE8"/>
<stop offset="0.2" stop-color="#69C3EB"/>
<stop offset="0.6" stop-color="#A3D8F1"/>
<stop offset="1" stop-color="#E1EFF8"/>
</linearGradient>
<linearGradient id="paint10_linear_20_224" x1="361.392" y1="491.558" x2="-43.376" y2="-135.569" gradientUnits="userSpaceOnUse">
<stop stop-color="#52BBE8"/>
<stop offset="0.2" stop-color="#69C3EB"/>
<stop offset="0.6" stop-color="#A3D8F1"/>
<stop offset="1" stop-color="#E1EFF8"/>
</linearGradient>
<linearGradient id="paint11_linear_20_224" x1="537.558" y1="383.131" x2="124.144" y2="-255.527" gradientUnits="userSpaceOnUse">
<stop stop-color="#52BBE8"/>
<stop offset="0.2" stop-color="#69C3EB"/>
<stop offset="0.6" stop-color="#A3D8F1"/>
<stop offset="1" stop-color="#E1EFF8"/>
</linearGradient>
<linearGradient id="paint12_linear_20_224" x1="403.889" y1="465.892" x2="-7.30113" y2="-165.725" gradientUnits="userSpaceOnUse">
<stop stop-color="#52BBE8"/>
<stop offset="0.2" stop-color="#69C3EB"/>
<stop offset="0.6" stop-color="#A3D8F1"/>
<stop offset="1" stop-color="#E1EFF8"/>
</linearGradient>
<linearGradient id="paint13_linear_20_224" x1="326.749" y1="516.283" x2="-83.7111" y2="-119.239" gradientUnits="userSpaceOnUse">
<stop stop-color="#52BBE8"/>
<stop offset="0.2" stop-color="#69C3EB"/>
<stop offset="0.6" stop-color="#A3D8F1"/>
<stop offset="1" stop-color="#E1EFF8"/>
</linearGradient>
<linearGradient id="paint14_linear_20_224" x1="393.535" y1="472.487" x2="-17.9569" y2="-160.724" gradientUnits="userSpaceOnUse">
<stop stop-color="#52BBE8"/>
<stop offset="0.2" stop-color="#69C3EB"/>
<stop offset="0.6" stop-color="#A3D8F1"/>
<stop offset="1" stop-color="#E1EFF8"/>
</linearGradient>
<linearGradient id="paint15_linear_20_224" x1="386.01" y1="474.993" x2="-13.7649" y2="-148.662" gradientUnits="userSpaceOnUse">
<stop stop-color="#52BBE8"/>
<stop offset="0.2" stop-color="#69C3EB"/>
<stop offset="0.6" stop-color="#A3D8F1"/>
<stop offset="1" stop-color="#E1EFF8"/>
</linearGradient>
<linearGradient id="paint16_linear_20_224" x1="188.844" y1="603.689" x2="-219.563" y2="-26.9092" gradientUnits="userSpaceOnUse">
<stop stop-color="#52BBE8"/>
<stop offset="0.2" stop-color="#69C3EB"/>
<stop offset="0.6" stop-color="#A3D8F1"/>
<stop offset="1" stop-color="#E1EFF8"/>
</linearGradient>
<linearGradient id="paint17_linear_20_224" x1="263.035" y1="556.127" x2="-145.382" y2="-74.445" gradientUnits="userSpaceOnUse">
<stop stop-color="#52BBE8"/>
<stop offset="0.2" stop-color="#69C3EB"/>
<stop offset="0.6" stop-color="#A3D8F1"/>
<stop offset="1" stop-color="#E1EFF8"/>
</linearGradient>
<linearGradient id="paint18_linear_20_224" x1="337.549" y1="508.57" x2="-69.1357" y2="-125.834" gradientUnits="userSpaceOnUse">
<stop stop-color="#52BBE8"/>
<stop offset="0.2" stop-color="#69C3EB"/>
<stop offset="0.6" stop-color="#A3D8F1"/>
<stop offset="1" stop-color="#E1EFF8"/>
</linearGradient>
<linearGradient id="paint19_linear_20_224" x1="386.01" y1="474.988" x2="-13.7649" y2="-148.662" gradientUnits="userSpaceOnUse">
<stop stop-color="#52BBE8"/>
<stop offset="0.2" stop-color="#69C3EB"/>
<stop offset="0.6" stop-color="#A3D8F1"/>
<stop offset="1" stop-color="#E1EFF8"/>
</linearGradient>
<linearGradient id="paint20_linear_20_224" x1="412.803" y1="458.641" x2="3.85467" y2="-172.78" gradientUnits="userSpaceOnUse">
<stop stop-color="#52BBE8"/>
<stop offset="0.2" stop-color="#69C3EB"/>
<stop offset="0.6" stop-color="#A3D8F1"/>
<stop offset="1" stop-color="#E1EFF8"/>
</linearGradient>
<linearGradient id="paint21_linear_20_224" x1="507.19" y1="399.414" x2="64.7183" y2="-207.853" gradientUnits="userSpaceOnUse">
<stop stop-color="#52BBE8"/>
<stop offset="0.2" stop-color="#69C3EB"/>
<stop offset="0.6" stop-color="#A3D8F1"/>
<stop offset="1" stop-color="#E1EFF8"/>
</linearGradient>
<linearGradient id="paint22_linear_20_224" x1="372.428" y1="519.82" x2="-57.4332" y2="-143.886" gradientUnits="userSpaceOnUse">
<stop stop-color="#52BBE8"/>
<stop offset="0.2" stop-color="#69C3EB"/>
<stop offset="0.6" stop-color="#A3D8F1"/>
<stop offset="1" stop-color="#E1EFF8"/>
</linearGradient>
<linearGradient id="paint23_linear_20_224" x1="481.221" y1="439.487" x2="54.3661" y2="-219.574" gradientUnits="userSpaceOnUse">
<stop stop-color="#52BBE8"/>
<stop offset="0.2" stop-color="#69C3EB"/>
<stop offset="0.6" stop-color="#A3D8F1"/>
<stop offset="1" stop-color="#E1EFF8"/>
</linearGradient>
<linearGradient id="paint24_linear_20_224" x1="533.097" y1="404.309" x2="102.183" y2="-261.029" gradientUnits="userSpaceOnUse">
<stop stop-color="#52BBE8"/>
<stop offset="0.2" stop-color="#69C3EB"/>
<stop offset="0.6" stop-color="#A3D8F1"/>
<stop offset="1" stop-color="#E1EFF8"/>
</linearGradient>
<linearGradient id="paint25_linear_20_224" x1="522.123" y1="379.821" x2="159.362" y2="-260.296" gradientUnits="userSpaceOnUse">
<stop stop-color="#52BBE8"/>
<stop offset="0.2" stop-color="#69C3EB"/>
<stop offset="0.6" stop-color="#A3D8F1"/>
<stop offset="1" stop-color="#E1EFF8"/>
</linearGradient>
<linearGradient id="paint26_linear_20_224" x1="405.525" y1="493.405" x2="-24.576" y2="-170.667" gradientUnits="userSpaceOnUse">
<stop stop-color="#52BBE8"/>
<stop offset="0.2" stop-color="#69C3EB"/>
<stop offset="0.6" stop-color="#A3D8F1"/>
<stop offset="1" stop-color="#E1EFF8"/>
</linearGradient>
<linearGradient id="paint27_linear_20_224" x1="412.252" y1="465.027" x2="-1.58837" y2="-173.94" gradientUnits="userSpaceOnUse">
<stop stop-color="#52BBE8"/>
<stop offset="0.2" stop-color="#69C3EB"/>
<stop offset="0.6" stop-color="#A3D8F1"/>
<stop offset="1" stop-color="#E1EFF8"/>
</linearGradient>
<linearGradient id="paint28_linear_20_224" x1="392.015" y1="442.025" x2="11.1566" y2="-146.02" gradientUnits="userSpaceOnUse">
<stop stop-color="#52BBE8"/>
<stop offset="0.2" stop-color="#69C3EB"/>
<stop offset="0.6" stop-color="#A3D8F1"/>
<stop offset="1" stop-color="#E1EFF8"/>
</linearGradient>
<linearGradient id="paint29_linear_20_224" x1="388.37" y1="475.159" x2="-20.8426" y2="-156.664" gradientUnits="userSpaceOnUse">
<stop stop-color="#52BBE8"/>
<stop offset="0.2" stop-color="#69C3EB"/>
<stop offset="0.6" stop-color="#A3D8F1"/>
<stop offset="1" stop-color="#E1EFF8"/>
</linearGradient>
<linearGradient id="paint30_linear_20_224" x1="466.099" y1="412.242" x2="105.441" y2="-224.155" gradientUnits="userSpaceOnUse">
<stop stop-color="#52BBE8"/>
<stop offset="0.2" stop-color="#69C3EB"/>
<stop offset="0.6" stop-color="#A3D8F1"/>
<stop offset="1" stop-color="#E1EFF8"/>
</linearGradient>
<linearGradient id="paint31_linear_20_224" x1="433.604" y1="449.833" x2="-5.63134" y2="-166.699" gradientUnits="userSpaceOnUse">
<stop stop-color="#52BBE8"/>
<stop offset="0.2" stop-color="#69C3EB"/>
<stop offset="0.6" stop-color="#A3D8F1"/>
<stop offset="1" stop-color="#E1EFF8"/>
</linearGradient>
<linearGradient id="paint32_linear_20_224" x1="462.754" y1="426.438" x2="53.6583" y2="-205.206" gradientUnits="userSpaceOnUse">
<stop stop-color="#52BBE8"/>
<stop offset="0.2" stop-color="#69C3EB"/>
<stop offset="0.6" stop-color="#A3D8F1"/>
<stop offset="1" stop-color="#E1EFF8"/>
</linearGradient>
<linearGradient id="paint33_linear_20_224" x1="455.646" y1="408.243" x2="66.1312" y2="-193.167" gradientUnits="userSpaceOnUse">
<stop stop-color="#52BBE8"/>
<stop offset="0.2" stop-color="#69C3EB"/>
<stop offset="0.6" stop-color="#A3D8F1"/>
<stop offset="1" stop-color="#E1EFF8"/>
</linearGradient>
<linearGradient id="paint34_linear_20_224" x1="510.739" y1="415.508" x2="81.2859" y2="-247.562" gradientUnits="userSpaceOnUse">
<stop stop-color="#52BBE8"/>
<stop offset="0.2" stop-color="#69C3EB"/>
<stop offset="0.6" stop-color="#A3D8F1"/>
<stop offset="1" stop-color="#E1EFF8"/>
</linearGradient>
<linearGradient id="paint35_linear_20_224" x1="344.072" y1="507.004" x2="-69.3643" y2="-131.345" gradientUnits="userSpaceOnUse">
<stop stop-color="#52BBE8"/>
<stop offset="0.2" stop-color="#69C3EB"/>
<stop offset="0.6" stop-color="#A3D8F1"/>
<stop offset="1" stop-color="#E1EFF8"/>
</linearGradient>
<linearGradient id="paint36_linear_20_224" x1="392.427" y1="488.393" x2="-32.812" y2="-168.178" gradientUnits="userSpaceOnUse">
<stop stop-color="#52BBE8"/>
<stop offset="0.2" stop-color="#69C3EB"/>
<stop offset="0.6" stop-color="#A3D8F1"/>
<stop offset="1" stop-color="#E1EFF8"/>
</linearGradient>
<linearGradient id="paint37_linear_20_224" x1="413.266" y1="481.809" x2="-22.6358" y2="-191.22" gradientUnits="userSpaceOnUse">
<stop stop-color="#52BBE8"/>
<stop offset="0.2" stop-color="#69C3EB"/>
<stop offset="0.6" stop-color="#A3D8F1"/>
<stop offset="1" stop-color="#E1EFF8"/>
</linearGradient>
<linearGradient id="paint38_linear_20_224" x1="438.324" y1="435.719" x2="37.9169" y2="-182.51" gradientUnits="userSpaceOnUse">
<stop stop-color="#52BBE8"/>
<stop offset="0.2" stop-color="#69C3EB"/>
<stop offset="0.6" stop-color="#A3D8F1"/>
<stop offset="1" stop-color="#E1EFF8"/>
</linearGradient>
<linearGradient id="paint39_linear_20_224" x1="457.128" y1="447.821" x2="-5.97695" y2="-195.708" gradientUnits="userSpaceOnUse">
<stop stop-color="#52BBE8"/>
<stop offset="0.2" stop-color="#69C3EB"/>
<stop offset="0.6" stop-color="#A3D8F1"/>
<stop offset="1" stop-color="#E1EFF8"/>
</linearGradient>
<linearGradient id="paint40_linear_20_224" x1="435.941" y1="439.293" x2="34.8192" y2="-180.037" gradientUnits="userSpaceOnUse">
<stop stop-color="#52BBE8"/>
<stop offset="0.2" stop-color="#69C3EB"/>
<stop offset="0.6" stop-color="#A3D8F1"/>
<stop offset="1" stop-color="#E1EFF8"/>
</linearGradient>
<linearGradient id="paint41_linear_20_224" x1="327.645" y1="500.969" x2="-15.6024" y2="-117.326" gradientUnits="userSpaceOnUse">
<stop stop-color="#52BBE8"/>
<stop offset="0.2" stop-color="#69C3EB"/>
<stop offset="0.6" stop-color="#A3D8F1"/>
<stop offset="1" stop-color="#E1EFF8"/>
</linearGradient>
<linearGradient id="paint42_linear_20_224" x1="390.48" y1="474.701" x2="-51.986" y2="-132.562" gradientUnits="userSpaceOnUse">
<stop stop-color="#52BBE8"/>
<stop offset="0.2" stop-color="#69C3EB"/>
<stop offset="0.6" stop-color="#A3D8F1"/>
<stop offset="1" stop-color="#E1EFF8"/>
</linearGradient>
<linearGradient id="paint43_linear_20_224" x1="371.03" y1="470.795" x2="-6.01991" y2="-111.375" gradientUnits="userSpaceOnUse">
<stop stop-color="#52BBE8"/>
<stop offset="0.2" stop-color="#69C3EB"/>
<stop offset="0.6" stop-color="#A3D8F1"/>
<stop offset="1" stop-color="#E1EFF8"/>
</linearGradient>
<linearGradient id="paint44_linear_20_224" x1="284.679" y1="520.052" x2="-46.6755" y2="-76.8263" gradientUnits="userSpaceOnUse">
<stop stop-color="#52BBE8"/>
<stop offset="0.2" stop-color="#69C3EB"/>
<stop offset="0.6" stop-color="#A3D8F1"/>
<stop offset="1" stop-color="#E1EFF8"/>
</linearGradient>
<linearGradient id="paint45_linear_20_224" x1="344.663" y1="514.863" x2="-86.2628" y2="-150.474" gradientUnits="userSpaceOnUse">
<stop stop-color="#52BBE8"/>
<stop offset="0.2" stop-color="#69C3EB"/>
<stop offset="0.6" stop-color="#A3D8F1"/>
<stop offset="1" stop-color="#E1EFF8"/>
</linearGradient>
<linearGradient id="paint46_linear_20_224" x1="463.052" y1="391.159" x2="-40.4029" y2="-380.464" gradientUnits="userSpaceOnUse">
<stop stop-color="#52BBE8"/>
<stop offset="0.2" stop-color="#69C3EB"/>
<stop offset="0.6" stop-color="#A3D8F1"/>
<stop offset="1" stop-color="#E1EFF8"/>
</linearGradient>
<linearGradient id="paint47_linear_20_224" x1="512.041" y1="357.928" x2="9.2856" y2="-411.617" gradientUnits="userSpaceOnUse">
<stop stop-color="#52BBE8"/>
<stop offset="0.2" stop-color="#69C3EB"/>
<stop offset="0.6" stop-color="#A3D8F1"/>
<stop offset="1" stop-color="#E1EFF8"/>
</linearGradient>
<linearGradient id="paint48_linear_20_224" x1="312.798" y1="486.573" x2="-184.456" y2="-282.291" gradientUnits="userSpaceOnUse">
<stop stop-color="#52BBE8"/>
<stop offset="0.2" stop-color="#69C3EB"/>
<stop offset="0.6" stop-color="#A3D8F1"/>
<stop offset="1" stop-color="#E1EFF8"/>
</linearGradient>
<linearGradient id="paint49_linear_20_224" x1="378.154" y1="444.701" x2="-118.805" y2="-324.806" gradientUnits="userSpaceOnUse">
<stop stop-color="#52BBE8"/>
<stop offset="0.2" stop-color="#69C3EB"/>
<stop offset="0.6" stop-color="#A3D8F1"/>
<stop offset="1" stop-color="#E1EFF8"/>
</linearGradient>
<linearGradient id="paint50_linear_20_224" x1="317.967" y1="484.842" x2="-183.307" y2="-285.847" gradientUnits="userSpaceOnUse">
<stop stop-color="#52BBE8"/>
<stop offset="0.2" stop-color="#69C3EB"/>
<stop offset="0.6" stop-color="#A3D8F1"/>
<stop offset="1" stop-color="#E1EFF8"/>
</linearGradient>
<linearGradient id="paint51_linear_20_224" x1="367.423" y1="453.595" x2="-142.205" y2="-318.92" gradientUnits="userSpaceOnUse">
<stop stop-color="#52BBE8"/>
<stop offset="0.2" stop-color="#69C3EB"/>
<stop offset="0.6" stop-color="#A3D8F1"/>
<stop offset="1" stop-color="#E1EFF8"/>
</linearGradient>
<linearGradient id="paint52_linear_20_224" x1="439.333" y1="406.114" x2="-61.0675" y2="-365.855" gradientUnits="userSpaceOnUse">
<stop stop-color="#52BBE8"/>
<stop offset="0.2" stop-color="#69C3EB"/>
<stop offset="0.6" stop-color="#A3D8F1"/>
<stop offset="1" stop-color="#E1EFF8"/>
</linearGradient>
<linearGradient id="paint53_linear_20_224" x1="344.306" y1="467.255" x2="-155.737" y2="-305.493" gradientUnits="userSpaceOnUse">
<stop stop-color="#52BBE8"/>
<stop offset="0.2" stop-color="#69C3EB"/>
<stop offset="0.6" stop-color="#A3D8F1"/>
<stop offset="1" stop-color="#E1EFF8"/>
</linearGradient>
<linearGradient id="paint54_linear_20_224" x1="419.467" y1="418.249" x2="-81.7311" y2="-352.199" gradientUnits="userSpaceOnUse">
<stop stop-color="#52BBE8"/>
<stop offset="0.2" stop-color="#69C3EB"/>
<stop offset="0.6" stop-color="#A3D8F1"/>
<stop offset="1" stop-color="#E1EFF8"/>
</linearGradient>
</defs>
</svg>
